<?xml version="1.0" standalone="no"?>
<!DOCTYPE svg PUBLIC "-//W3C//DTD SVG 20010904//EN"
 "http://www.w3.org/TR/2001/REC-SVG-20010904/DTD/svg10.dtd">
<svg version="1.0" xmlns="http://www.w3.org/2000/svg"
 width="960.000000pt" height="960.000000pt" viewBox="0 0 960.000000 960.000000"
 preserveAspectRatio="xMidYMid meet">
<metadata>
Created by potrace 1.14, written by Peter Selinger 2001-2017
</metadata>
<g transform="translate(0.000000,960.000000) scale(0.100000,-0.100000)"
fill="#000000" stroke="none">
<path d="M0 4800 l0 -4800 4800 0 4800 0 0 4800 0 4800 -2745 0 c-2590 0
-2745 -1 -2754 -17 -9 -17 -10 -17 -28 0 -18 15 -54 17 -406 17 -213 0 -387
-2 -387 -5 0 -2 18 -55 40 -116 41 -116 50 -164 28 -157 -7 3 -22 38 -34 79
-11 41 -32 101 -46 134 l-24 60 -1622 3 -1622 2 0 -4800z m4295 4740 c9 -16
18 -59 20 -95 3 -36 10 -76 15 -89 5 -13 14 -98 20 -188 5 -89 13 -179 15
-198 6 -40 -6 -65 -27 -57 -16 6 -28 60 -53 227 -39 271 -46 430 -20 430 8 0
21 -13 30 -30z m-408 -68 c39 -85 146 -465 134 -477 -13 -14 -29 0 -52 48 -61
120 -79 169 -110 295 -26 108 -30 137 -21 157 6 14 15 25 19 25 5 -1 18 -22
30 -48z m1516 6 c-3 -24 -8 -45 -10 -48 -8 -9 -23 26 -23 58 0 25 4 32 19 32
17 0 18 -5 14 -42z m-1683 1 c0 -24 -23 -21 -28 4 -2 10 3 17 12 17 10 0 16
-9 16 -21z m368 9 c10 -13 15 -40 13 -66 -1 -8 -11 -12 -28 -10 -22 2 -29 9
-31 31 -6 51 20 76 46 45z m691 -450 c36 -107 36 -108 16 -108 -14 0 -22 23
-54 145 -13 49 -13 55 -2 55 4 0 22 -42 40 -92z m1536 21 c-8 -23 -8 -23 -15
-4 -9 26 -1 50 12 37 6 -6 7 -21 3 -33z m-2547 -102 c18 -29 32 -56 32 -60 0
-5 23 -42 51 -83 28 -42 48 -82 45 -90 -7 -17 -50 -19 -64 -1 -24 29 -132 247
-132 266 0 40 34 24 68 -32z m650 -234 c5 -17 -26 -29 -40 -15 -6 6 -7 15 -3
22 9 14 37 9 43 -7z m226 -59 c11 -28 6 -54 -9 -54 -16 0 -31 43 -20 59 9 16
22 13 29 -5z m-176 -123 c14 -46 15 -61 3 -61 -10 0 -31 54 -31 81 0 32 16 21
28 -20z m-612 -46 c-9 -23 -26 -9 -26 23 0 24 1 25 16 10 10 -9 14 -24 10 -33z
m579 -145 c0 -18 -6 -35 -12 -37 -9 -3 -13 8 -13 37 0 29 4 40 13 38 6 -3 12
-20 12 -38z m183 3 c29 -44 52 -99 52 -128 0 -23 -4 -26 -27 -23 -23 2 -33 14
-55 58 -33 68 -37 120 -9 120 11 0 28 -12 39 -27z m617 -13 c0 -13 -6 -25 -12
-27 -9 -3 -13 6 -13 27 0 21 4 30 13 28 6 -3 12 -15 12 -28z m-1170 -52 c17
-44 54 -236 61 -323 l4 -50 -14 31 c-8 17 -27 88 -41 157 -14 70 -32 147 -39
171 -13 43 -12 56 5 56 4 0 14 -19 24 -42z m3215 -58 c0 -5 -2 -10 -4 -10 -3
0 -8 5 -11 10 -3 6 -1 10 4 10 6 0 11 -4 11 -10z m400 4 c0 -4 -16 -24 -35
-45 -34 -38 -44 -59 -26 -59 5 0 14 7 21 15 7 8 20 15 29 15 11 0 7 -6 -11
-18 -16 -9 -28 -22 -28 -29 0 -10 117 -53 145 -53 4 0 23 -13 42 -30 39 -35
53 -38 46 -10 -3 11 -12 20 -19 20 -8 0 -14 5 -14 10 0 22 21 7 93 -63 40 -40
107 -93 147 -117 40 -24 68 -46 62 -48 -6 -2 -20 1 -31 7 -27 15 -31 14 -31
-6 0 -25 63 -78 117 -98 74 -27 143 -67 143 -82 0 -18 -13 -16 -41 5 -13 11
-33 22 -44 25 -11 3 -46 15 -78 26 -65 23 -97 19 -74 -8 8 -9 23 -41 32 -71
33 -100 57 -160 76 -184 42 -54 77 -176 50 -176 -5 0 -14 15 -21 33 -23 60
-55 118 -82 147 -26 29 -51 43 -31 18 6 -7 16 -29 22 -50 7 -20 23 -48 37 -63
13 -14 22 -30 19 -35 -3 -5 1 -26 10 -46 19 -46 19 -64 0 -64 -19 0 -19 -5 0
-66 8 -27 15 -50 15 -51 0 -2 -9 -3 -20 -3 -12 0 -20 7 -20 17 0 24 -40 103
-52 103 -6 0 -7 -9 -3 -22 4 -13 11 -43 15 -68 5 -25 16 -67 25 -94 18 -57 18
-66 5 -66 -13 0 -30 35 -44 89 -6 25 -15 45 -21 44 -19 -4 -17 -43 4 -77 29
-46 28 -68 -3 -60 -29 7 -34 -8 -43 -122 -5 -68 -2 -90 16 -138 11 -31 21 -64
21 -73 0 -35 45 -108 105 -169 34 -35 66 -64 72 -64 18 0 44 37 61 86 11 29
26 53 39 58 11 6 28 23 38 38 9 16 40 54 69 86 29 31 55 64 58 73 9 24 50 28
107 10 61 -18 66 -31 12 -31 -43 0 -65 -18 -54 -45 5 -16 2 -17 -28 -12 -19 3
-28 3 -20 0 9 -4 2 -16 -25 -42 -22 -21 -61 -75 -89 -121 -27 -45 -76 -123
-109 -172 -38 -59 -56 -96 -53 -109 3 -13 -7 -36 -29 -64 -19 -25 -34 -52 -34
-60 0 -14 -19 -62 -32 -80 -4 -5 -28 -36 -54 -68 -66 -84 -81 -128 -75 -222 2
-28 3 -29 16 -11 20 26 38 10 31 -29 -5 -22 -2 -36 9 -45 21 -17 19 -30 -9
-59 -28 -29 -88 -142 -107 -198 -7 -21 -22 -54 -33 -73 -12 -19 -37 -71 -55
-115 -19 -44 -65 -144 -103 -223 -38 -79 -77 -165 -87 -190 -11 -26 -58 -128
-106 -227 -48 -99 -100 -214 -117 -255 -46 -116 -159 -326 -195 -365 -18 -19
-33 -40 -33 -46 0 -19 -60 -1 -80 23 l-18 23 -21 -25 c-11 -14 -60 -104 -109
-200 -49 -96 -99 -191 -110 -210 -12 -19 -41 -73 -65 -120 -24 -47 -59 -112
-77 -145 -115 -206 -209 -394 -208 -414 1 -9 -13 -46 -30 -84 -18 -37 -32 -72
-32 -77 0 -12 -3 -12 -24 -4 -18 7 -12 25 30 84 18 25 35 59 39 75 6 25 1 20
-29 -25 -20 -30 -36 -60 -36 -67 0 -7 -4 -13 -9 -13 -5 0 -11 -10 -15 -23 -3
-13 -23 -44 -44 -68 -21 -24 -69 -91 -107 -149 -38 -58 -72 -107 -75 -110 -4
-3 -28 -37 -53 -76 -24 -39 -55 -79 -68 -90 -13 -10 -42 -43 -64 -71 -21 -29
-42 -53 -45 -53 -3 0 -30 -32 -60 -71 -44 -58 -57 -69 -76 -65 -18 5 -21 2
-17 -14 6 -23 -43 -80 -69 -80 -10 0 -22 -9 -29 -21 -7 -14 -14 -18 -21 -11
-13 13 -1 31 99 140 129 142 148 165 173 207 39 65 74 105 92 105 20 0 104 98
156 180 19 30 63 98 97 150 119 182 202 315 229 372 15 31 34 62 42 69 8 6 14
17 14 23 0 6 16 36 36 66 20 30 61 102 92 160 30 58 78 146 105 195 28 50 90
168 138 264 49 95 94 180 100 187 21 26 190 360 219 434 12 30 27 64 35 75 7
12 26 52 43 90 16 39 64 148 106 244 42 96 76 182 76 191 0 9 11 31 25 50 14
19 25 41 25 50 0 9 4 20 9 26 14 16 148 336 181 435 29 86 90 218 90 194 -1
-20 -19 -81 -44 -147 -14 -38 -21 -68 -16 -68 5 0 12 10 16 23 3 12 15 40 24
62 10 22 26 61 35 88 18 49 42 66 31 22 -18 -74 -17 -81 4 -40 12 24 19 50 16
65 -5 24 23 110 65 207 11 24 19 48 19 54 0 18 -25 4 -29 -17 -2 -10 -14 -34
-27 -54 l-24 -35 0 30 c0 17 9 41 20 55 11 14 20 39 20 56 0 17 7 49 16 70 27
65 44 151 45 233 1 82 -9 170 -21 186 -4 6 -10 21 -14 35 -8 32 -42 77 -52 68
-3 -4 1 -26 11 -50 9 -24 25 -83 36 -131 18 -87 18 -90 -1 -189 -11 -55 -23
-105 -29 -112 -5 -6 -14 -37 -20 -68 -7 -31 -19 -62 -27 -68 -7 -7 -14 -21
-14 -31 0 -10 -16 -58 -35 -106 -20 -49 -45 -113 -56 -143 -42 -109 -79 -180
-94 -180 -8 0 -15 -8 -15 -18 0 -21 -48 -68 -110 -107 -25 -15 -47 -31 -50
-35 -3 -4 -15 -13 -28 -19 -22 -12 -23 -11 -12 8 6 12 17 21 25 21 8 0 15 6
15 14 0 22 40 66 54 60 17 -7 30 12 15 21 -6 4 24 42 75 95 47 48 86 93 86 99
0 19 -29 12 -40 -9 -6 -11 -21 -20 -35 -20 -26 0 -41 -15 -25 -25 6 -4 -14
-31 -45 -63 -30 -31 -55 -59 -55 -63 0 -4 -16 -24 -35 -45 -28 -32 -37 -36
-44 -24 -6 8 -13 11 -18 7 -4 -5 -1 -12 6 -16 11 -7 10 -14 -4 -35 -10 -15
-23 -30 -30 -34 -6 -4 -27 -28 -46 -53 -70 -94 -149 -187 -240 -279 -52 -52
-132 -142 -178 -200 -45 -58 -122 -146 -170 -195 -47 -50 -108 -115 -136 -144
-54 -59 -172 -149 -222 -172 -18 -8 -33 -19 -33 -26 0 -13 -128 -133 -142
-133 -5 0 -30 -15 -56 -32 -145 -101 -192 -116 -229 -75 -34 36 -93 140 -93
164 0 12 -13 44 -30 70 -16 26 -30 51 -30 56 0 5 -20 32 -45 59 -25 28 -53 72
-62 99 -10 27 -21 49 -25 49 -11 0 -48 75 -48 96 0 10 -9 27 -19 38 -11 12
-36 54 -56 94 -20 39 -39 72 -44 72 -21 0 -17 -19 24 -96 25 -46 42 -84 39
-84 -15 0 -146 92 -151 106 -3 8 -1 26 5 39 6 12 8 26 5 29 -10 9 -43 -14 -43
-30 0 -20 -35 -13 -94 17 -21 11 -40 18 -43 16 -5 -6 34 -31 89 -56 26 -12 52
-30 58 -41 6 -11 18 -20 27 -20 21 0 122 -63 152 -94 14 -14 21 -26 18 -26 -4
0 -56 25 -114 55 -59 30 -114 55 -122 55 -15 0 -57 18 -161 68 l-55 27 -6 80
c-4 44 -11 100 -16 125 -6 25 -16 85 -23 134 -10 65 -16 83 -21 67 -8 -21 -29
-29 -29 -11 0 6 -5 10 -11 10 -7 0 -9 -23 -4 -73 7 -70 6 -74 -21 -106 -31
-37 -50 -126 -32 -148 16 -20 -16 -16 -39 5 -11 9 -26 37 -33 62 -7 25 -22 65
-33 90 -37 83 -70 231 -61 276 3 18 1 35 -5 38 -6 4 -11 2 -11 -3 0 -6 -4 -11
-9 -11 -8 0 -55 127 -96 263 -10 32 -22 60 -26 63 -5 3 -9 20 -9 38 0 19 -7
39 -15 46 -12 10 -15 9 -15 -7 0 -19 13 -65 30 -108 4 -11 22 -67 40 -125 18
-58 40 -130 50 -160 10 -30 23 -84 29 -120 9 -56 21 -110 48 -217 3 -14 1 -23
-6 -23 -6 0 -11 4 -11 8 0 5 -15 34 -34 65 -19 32 -38 67 -42 80 -5 18 -114
238 -270 547 -31 62 -30 43 2 -27 66 -145 240 -510 254 -533 5 -8 23 -42 41
-75 17 -33 37 -67 44 -75 7 -8 16 -25 19 -36 6 -20 2 -22 -61 -26 -40 -3 -84
-13 -108 -26 -45 -23 -247 -216 -317 -303 -26 -33 -48 -72 -52 -94 -7 -34 -4
-40 30 -72 21 -19 72 -51 113 -71 42 -20 79 -41 84 -47 5 -6 12 -4 21 8 11 15
22 17 53 12 21 -4 48 -14 61 -22 13 -8 31 -13 40 -12 33 3 38 -1 65 -53 25
-51 63 -186 86 -313 14 -71 25 -112 85 -305 24 -80 57 -199 72 -265 15 -66 31
-127 35 -136 4 -8 1 -42 -8 -76 l-15 -60 -110 -6 c-105 -5 -112 -5 -129 16 -9
12 -20 19 -23 16 -12 -11 -16 -54 -9 -84 l7 -30 5 29 6 28 116 5 c77 3 119 1
124 -6 3 -6 -3 -25 -15 -41 -19 -26 -27 -30 -71 -30 -27 0 -69 -6 -95 -12 -42
-12 -47 -11 -60 6 -16 23 -30 15 -17 -9 7 -12 30 -17 101 -20 51 -2 97 -7 102
-10 13 -8 6 -91 -17 -212 -8 -46 -13 -90 -9 -98 3 -8 3 -29 -1 -45 -4 -23 -11
-30 -29 -30 -12 0 -26 5 -30 11 -3 6 -22 17 -40 25 -19 8 -34 19 -34 24 0 5
-18 13 -40 16 -21 4 -47 15 -56 25 -9 11 -23 19 -30 19 -20 0 -188 90 -202
108 -29 37 25 263 84 354 13 21 24 45 24 53 0 21 -24 45 -44 45 -20 0 -20 -9
-1 -31 14 -15 14 -20 -3 -50 -16 -29 -24 -34 -53 -32 l-34 1 28 -16 c31 -19
31 -13 -1 -132 -12 -41 -24 -99 -28 -128 -7 -51 -8 -53 -33 -47 -14 4 -34 14
-44 23 -20 18 -19 35 3 122 6 25 14 60 17 77 3 18 9 31 13 28 5 -3 6 4 3 15
-3 11 2 32 12 46 9 14 14 28 11 31 -3 3 3 27 14 54 12 33 14 49 7 49 -7 0 -19
-21 -27 -48 -12 -37 -19 -46 -35 -44 -15 2 -17 1 -6 -7 12 -7 11 -18 -2 -72
-23 -96 -37 -168 -37 -195 0 -36 -23 -39 -72 -8 -23 16 -63 38 -88 50 -53 26
-179 135 -219 192 -21 27 -39 77 -60 163 -36 144 -39 174 -15 165 11 -4 8 5
-11 29 -31 41 -26 59 8 28 21 -19 108 -63 125 -63 11 0 40 -32 41 -45 0 -5 10
-11 21 -11 12 -1 32 -11 45 -24 14 -13 30 -20 40 -16 9 3 14 2 11 -3 -6 -9 37
-31 61 -31 20 0 101 -38 109 -51 3 -5 19 -9 35 -9 40 0 28 17 -17 26 -19 3
-57 22 -84 40 -27 19 -54 34 -60 34 -5 0 -17 11 -25 24 -9 13 -31 31 -48 40
-51 25 -68 42 -61 60 4 11 1 16 -11 16 -9 0 -13 -5 -9 -11 5 -9 -1 -10 -22 -4
-16 4 -38 8 -49 7 -49 -1 -66 8 -60 31 4 14 3 18 -3 9 -7 -10 -14 -8 -35 8
-15 12 -26 24 -25 28 2 4 -5 18 -14 32 -15 22 -22 64 -53 300 -2 14 -7 49 -10
79 -6 39 -4 52 4 47 6 -4 11 -14 11 -22 0 -19 16 -18 24 1 9 23 26 18 23 -7
-2 -18 4 -24 26 -26 27 -3 38 12 15 21 -7 2 -10 8 -6 12 4 4 15 2 24 -6 16
-12 17 -12 12 7 -4 15 -1 21 10 20 9 0 18 7 20 17 3 16 -1 18 -32 13 -20 -3
-36 -3 -36 0 0 3 20 31 43 62 24 31 50 68 57 82 7 13 19 31 27 38 17 18 17 41
-2 48 -8 4 -12 10 -9 15 3 5 -3 28 -14 51 -10 24 -22 55 -25 71 -8 30 -27 37
-27 10 0 -10 -3 -29 -6 -43 -4 -16 -3 -21 3 -12 10 14 19 1 48 -73 16 -39 15
-40 -14 -80 -17 -22 -47 -65 -68 -95 -20 -30 -46 -63 -58 -73 -18 -17 -20 -17
-23 -3 -4 18 -22 22 -22 5 0 -5 -4 -8 -9 -5 -5 3 -12 29 -15 58 -8 59 -19 84
-34 74 -10 -6 -22 35 -28 94 -2 19 -6 46 -9 59 -5 20 -3 23 14 18 12 -3 21 -2
21 3 0 4 7 10 14 13 9 4 13 1 11 -6 -3 -7 -1 -25 4 -42 8 -28 9 -26 16 27 8
65 3 78 -31 78 -22 0 -25 4 -23 28 0 4 7 6 15 4 8 -2 14 5 14 18 0 15 -6 20
-25 20 -24 0 -26 -3 -38 -65 -5 -25 -8 -16 -31 80 -20 87 -21 131 -1 139 8 3
15 12 15 21 0 18 -12 19 -27 4 -9 -9 -13 -6 -17 12 -5 22 -26 184 -26 201 0 3
10 8 22 10 13 2 24 11 26 22 4 16 0 18 -27 13 -30 -6 -31 -6 -31 33 0 38 14
62 22 38 2 -6 10 -8 16 -4 16 10 5 26 -17 26 -14 0 -18 9 -19 44 0 35 3 43 14
39 20 -7 18 14 -2 25 -13 7 -15 16 -9 38 11 45 7 103 -10 127 -8 12 -15 30
-15 40 0 21 -29 78 -45 89 -5 4 -11 29 -12 55 0 26 -10 104 -22 173 -25 153
-26 203 -5 268 16 49 16 51 -9 104 -25 50 -49 125 -68 213 -13 62 -10 184 5
243 18 67 69 130 149 184 34 23 87 62 117 86 30 25 78 58 107 74 59 33 65 44
52 90 -14 51 -9 68 7 23 8 -22 19 -44 24 -49 5 -5 53 -11 107 -12 65 -2 121
-10 166 -24 59 -18 76 -30 140 -94 64 -65 83 -94 169 -259 77 -148 100 -201
108 -252 6 -36 17 -86 26 -111 17 -49 16 -85 -2 -91 -7 -2 -17 9 -22 24 -6 15
-11 23 -11 17 -2 -21 29 -85 44 -90 23 -9 38 -69 24 -92 -9 -15 -8 -28 6 -65
21 -57 39 -62 31 -9 -7 42 5 104 20 109 5 2 31 -17 57 -42 26 -25 51 -45 56
-45 5 0 22 -10 38 -23 15 -13 36 -27 46 -30 10 -4 17 -15 15 -24 -2 -13 3 -17
17 -15 110 13 146 20 152 26 12 12 -23 33 -67 40 -21 3 -51 16 -65 29 l-26 22
24 85 c15 52 23 98 19 120 l-5 35 24 -20 c52 -43 144 -130 144 -137 0 -17 23
-23 103 -24 48 0 101 -4 117 -8 25 -5 24 -3 -10 13 -30 14 -53 18 -90 14 -44
-4 -55 -1 -87 24 -56 43 -247 215 -297 268 -27 27 -50 44 -59 40 -18 -7 -92
52 -92 74 0 10 -11 27 -25 39 -35 31 -32 38 21 46 70 9 77 8 107 -18 15 -13
40 -29 56 -36 16 -6 34 -22 41 -36 15 -27 30 -32 30 -10 0 8 12 28 26 43 50
54 94 131 90 160 -2 16 -1 20 1 11 7 -26 30 -22 72 14 21 18 58 37 82 42 34 9
45 17 49 36 6 25 6 25 18 4 9 -18 24 -22 87 -27 67 -5 85 -11 157 -53 96 -56
181 -132 198 -177 7 -17 30 -68 50 -112 20 -44 45 -100 54 -125 10 -25 24 -60
32 -78 8 -18 14 -41 14 -50 0 -10 16 -55 35 -101 19 -45 38 -101 41 -124 13
-85 43 -105 42 -29 -2 313 3 351 48 418 24 35 25 42 14 72 -16 44 -5 53 17 13
24 -43 42 -46 104 -18 30 13 81 32 114 42 33 10 85 36 116 56 31 21 76 44 99
51 79 24 140 98 81 98 -32 0 -44 25 -31 64 13 42 15 183 2 199 -5 7 -9 30 -8
52 2 43 -22 98 -39 91 -12 -4 -40 33 -31 41 3 3 8 -1 11 -9 4 -9 14 -14 23
-11 10 2 32 -12 57 -37 35 -36 38 -43 27 -61 -13 -20 -8 -59 8 -59 5 0 16 -3
25 -6 13 -5 15 0 13 32 -1 22 2 50 6 63 7 21 6 23 -13 18 -15 -4 -24 0 -28 11
-4 9 -23 37 -44 62 -20 25 -43 61 -52 81 -10 24 -23 38 -41 43 -15 4 -32 19
-42 37 -23 46 -33 23 -23 -59 6 -56 14 -80 33 -103 14 -17 26 -36 26 -43 0 -7
14 -30 30 -51 30 -38 39 -65 20 -65 -6 0 -17 18 -26 40 -9 22 -20 40 -24 40
-4 0 -10 10 -13 22 -4 12 -9 19 -13 15 -4 -4 -1 -25 6 -47 7 -22 10 -43 7 -47
-4 -3 -8 -4 -10 -2 -1 2 -21 31 -43 64 -42 62 -85 173 -87 228 -1 17 -8 32
-14 34 -10 4 -11 -7 -7 -41 4 -25 4 -46 1 -46 -8 0 -57 46 -57 54 0 11 28 6
33 -6 3 -7 6 4 6 24 1 41 -17 62 -26 29 -3 -12 -9 -21 -14 -21 -5 0 -14 -11
-19 -25 -11 -28 -34 -35 -26 -7 11 35 28 148 30 205 3 65 10 62 -74 41 -21 -5
-19 -1 15 28 90 75 204 215 229 281 10 29 22 54 25 57 3 3 15 21 25 40 10 19
32 49 49 67 18 19 27 38 24 47 -4 10 -1 16 8 16 8 0 15 5 15 10 0 16 -37 11
-72 -10 -40 -24 -55 -26 -33 -4 9 9 24 28 32 41 19 29 106 75 148 79 94 8 119
15 153 40 46 35 51 42 44 66 -4 18 -1 19 47 12 31 -4 51 -3 51 3 0 6 39 23 88
39 78 25 100 28 222 28 74 0 153 -4 175 -9 38 -8 39 -7 25 10 -8 10 -42 31
-75 47 -52 24 -56 28 -30 28 54 0 112 -30 140 -71 14 -22 30 -39 35 -39 5 0
21 17 34 39 14 21 37 48 53 59 27 21 53 28 53 16z m-4246 -310 c9 -22 -3 -32
-14 -14 -12 19 -12 30 -1 30 5 0 12 -7 15 -16z m974 -57 c4 -21 -25 -34 -40
-19 -8 8 -8 16 2 27 16 19 34 15 38 -8z m380 12 c-2 -6 -8 -10 -13 -10 -5 0
-11 4 -13 10 -2 6 4 11 13 11 9 0 15 -5 13 -11z m-3720 -218 c39 -21 84 -48
101 -60 16 -12 33 -21 38 -21 4 0 31 -16 60 -35 28 -19 64 -37 79 -41 16 -4
38 -14 49 -23 37 -30 66 -42 111 -46 29 -3 57 -14 76 -30 16 -14 34 -25 38
-25 16 0 124 -52 142 -68 11 -9 40 -16 70 -17 l52 -2 31 -59 c21 -39 43 -66
66 -79 57 -33 129 -96 129 -114 0 -9 5 -22 11 -28 9 -9 28 -87 65 -273 19 -98
19 -230 -1 -362 -8 -59 -13 -117 -10 -130 10 -45 -6 -49 -74 -22 -34 14 -65
23 -68 20 -3 -3 3 -9 13 -13 27 -10 195 -112 219 -133 11 -9 55 -37 98 -61 43
-24 92 -53 110 -64 35 -22 50 -65 23 -65 -9 0 -16 4 -16 9 0 5 -12 12 -27 16
-44 10 -225 93 -337 153 -103 56 -258 137 -421 220 -153 78 -390 226 -399 248
-3 7 -11 11 -19 8 -16 -6 -223 113 -251 145 -13 15 -20 38 -21 69 -1 26 -7 57
-15 69 -10 16 -11 28 -4 45 6 13 7 42 2 68 -18 103 -30 278 -35 488 -6 283 -7
280 115 213z m4393 -12 c28 -48 28 -69 -2 -69 -13 0 -21 12 -29 43 -6 23 -14
50 -17 61 -9 33 20 12 48 -35z m-677 -89 c156 -306 187 -373 182 -396 -13 -52
-38 -20 -131 171 -102 211 -135 287 -129 297 14 23 42 -3 78 -72z m3466 -112
c0 -15 -19 -8 -30 11 -17 33 -11 45 10 21 11 -13 20 -27 20 -32z m-4140 -13
c0 -29 -15 -33 -29 -6 -11 20 -5 31 16 31 7 0 13 -11 13 -25z m150 -111 c0 -9
-5 -14 -12 -12 -18 6 -21 28 -4 28 9 0 16 -7 16 -16z m320 -50 c0 -42 -13 -44
-30 -3 -11 26 -11 32 0 39 21 13 30 2 30 -36z m140 -35 c0 -10 -7 -19 -15 -19
-15 0 -21 31 -9 43 11 10 24 -3 24 -24z m-2061 -14 c3 -19 -9 -66 -40 -150
-10 -27 -32 -97 -49 -155 -17 -58 -35 -116 -40 -130 -5 -14 -14 -45 -20 -69
-14 -53 -37 -91 -56 -91 -18 0 -18 17 1 110 17 86 27 124 54 195 11 27 36 102
57 165 36 114 58 154 78 147 6 -2 13 -12 15 -22z m5661 -74 c-1 -11 -8 -8 -25
12 -33 37 -32 57 0 27 14 -13 25 -31 25 -39z m-4020 29 c0 -11 -4 -20 -10 -20
-5 0 -10 9 -10 20 0 11 5 20 10 20 6 0 10 -9 10 -20z m1009 -120 c17 -44 31
-90 31 -103 0 -13 8 -55 19 -95 10 -39 16 -74 13 -77 -16 -16 -32 2 -51 58
-12 34 -40 106 -62 159 -39 98 -49 162 -26 171 19 8 44 -28 76 -113z m-1109
50 c0 -11 -7 -20 -15 -20 -15 0 -21 21 -8 33 12 13 23 7 23 -13z m4055 10 c3
-5 1 -10 -4 -10 -6 0 -11 5 -11 10 0 6 2 10 4 10 3 0 8 -4 11 -10z m-1995 -88
c0 -5 -7 -17 -15 -28 -14 -18 -14 -18 -15 9 0 17 5 27 15 27 8 0 15 -4 15 -8z
m-1185 -85 c30 -103 10 -102 -24 0 -25 74 -25 79 -6 63 8 -7 22 -35 30 -63z
m-175 23 c0 -10 -4 -21 -9 -25 -12 -7 -25 31 -16 45 9 15 25 2 25 -20z m1612
13 c10 -9 18 -26 18 -37 -1 -19 -3 -18 -25 9 -36 44 -31 63 7 28z m-768 -99
c11 -29 6 -44 -14 -44 -16 0 -20 7 -20 30 0 32 23 42 34 14z m-4961 -49 c19
-13 19 -15 4 -15 -24 0 -77 28 -77 40 0 11 42 -3 73 -25z m4107 -106 c0 -5 -4
-9 -10 -9 -5 0 -10 7 -10 16 0 8 5 12 10 9 6 -3 10 -10 10 -16z m1048 -23 c3
-12 -1 -17 -10 -14 -7 3 -15 13 -16 22 -3 12 1 17 10 14 7 -3 15 -13 16 -22z
m2822 -6 c14 -11 30 -20 35 -20 22 -1 99 -90 78 -90 -5 0 -18 15 -30 34 -15
23 -32 36 -55 40 -31 6 -78 37 -78 50 0 12 26 5 50 -14z m-3587 -46 c-3 -8 -9
-14 -13 -14 -10 0 -19 47 -11 55 9 10 30 -26 24 -41z m577 14 c0 -19 -2 -20
-10 -8 -13 19 -13 30 0 30 6 0 10 -10 10 -22z m2990 -20 c0 -6 -7 -7 -16 -4
-9 3 -18 6 -20 6 -3 0 -3 4 1 10 7 11 35 2 35 -12z m200 -88 c0 -5 -2 -10 -4
-10 -3 0 -8 5 -11 10 -3 6 -1 10 4 10 6 0 11 -4 11 -10z m110 -100 c36 -33 58
-59 50 -60 -9 0 -42 27 -75 60 -76 77 -60 77 25 0z m-4365 -61 c50 -45 43 -56
-11 -17 -53 38 -61 48 -40 48 8 0 31 -14 51 -31z m-2146 -276 c2 -1 2 -5 0 -8
-6 -5 -164 99 -174 115 -3 5 -3 15 0 20 4 6 42 -18 88 -56 45 -37 84 -69 86
-71z m2379 42 c-9 -9 -48 27 -48 44 0 11 8 7 27 -11 15 -15 24 -30 21 -33z
m-2672 30 c-25 -19 -46 -19 -46 0 0 10 10 15 33 15 30 -1 31 -1 13 -15z m266
-102 c185 -130 355 -233 385 -233 11 0 28 -9 37 -19 10 -11 28 -22 41 -25 13
-3 59 -27 102 -54 43 -26 102 -58 131 -71 29 -14 52 -31 52 -38 0 -10 -7 -12
-19 -8 -12 3 -21 0 -25 -10 -5 -13 -11 -12 -43 9 -21 14 -71 44 -111 66 -40
23 -81 49 -90 58 -10 9 -35 26 -57 37 -22 11 -54 30 -71 43 -17 12 -34 22 -37
22 -4 0 -29 16 -56 35 -27 19 -82 52 -122 73 -41 21 -103 57 -138 80 -35 24
-79 49 -97 57 -19 8 -34 21 -34 29 0 8 -9 18 -20 21 -25 8 -26 45 -1 45 4 0
82 -53 173 -117z m-1231 86 c24 -12 57 -33 73 -46 17 -14 66 -42 110 -64 45
-21 110 -54 146 -74 36 -20 78 -43 93 -52 16 -8 27 -17 24 -20 -3 -2 -17 3
-31 12 -14 9 -33 14 -44 11 -21 -7 -126 38 -317 135 -102 52 -110 58 -113 87
-4 38 1 39 59 11z m999 -14 c0 -8 -9 -15 -20 -15 -22 0 -27 15 -7 23 21 9 27
7 27 -8z m73 -62 c23 -15 44 -30 47 -34 3 -3 20 -11 37 -17 18 -6 52 -24 75
-40 24 -16 77 -46 118 -66 74 -37 103 -56 84 -56 -29 0 -379 195 -404 225 -19
22 -5 18 43 -12z m235 -182 c15 -10 59 -35 97 -55 126 -64 289 -159 320 -186
11 -10 30 -21 43 -25 44 -13 212 -96 212 -105 0 -20 -18 -16 -85 17 -77 39
-132 68 -155 83 -13 8 -372 210 -452 254 -28 15 -38 36 -17 36 6 0 23 -8 37
-19z m5632 -10 c0 -5 -6 -14 -14 -20 -7 -6 -25 -38 -40 -71 -15 -33 -31 -60
-36 -60 -16 0 -16 92 0 112 26 33 90 60 90 39z m100 -22 c0 -11 -27 -12 -34 0
-3 4 -3 11 0 14 8 8 34 -3 34 -14z m-50 -13 c0 -3 -13 -11 -30 -20 -32 -15
-42 -4 -12 13 17 11 42 14 42 7z m-290 -86 c0 -4 -6 -10 -14 -13 -10 -4 -12 0
-9 14 5 18 23 18 23 -1z m-33 -52 c-3 -8 -6 -5 -6 6 -1 11 2 17 5 13 3 -3 4
-12 1 -19z m-4915 -133 c87 -49 155 -91 153 -93 -8 -8 -327 163 -336 180 -13
25 0 18 183 -87z m183 -105 c3 -5 1 -10 -4 -10 -6 0 -11 5 -11 10 0 6 2 10 4
10 3 0 8 -4 11 -10z m45 -20 c0 -5 -4 -10 -9 -10 -6 0 -13 5 -16 10 -3 6 1 10
9 10 9 0 16 -4 16 -10z m-539 -16 c16 -8 74 -30 127 -49 127 -44 383 -152 403
-171 8 -8 21 -14 28 -14 7 0 35 -13 64 -29 29 -16 86 -43 127 -61 79 -34 129
-70 98 -70 -9 0 -19 4 -23 9 -3 5 -29 17 -58 27 -28 9 -81 32 -117 51 -36 18
-73 33 -82 33 -9 0 -38 11 -63 25 -26 13 -63 27 -83 31 -21 4 -51 17 -69 30
-18 14 -61 33 -97 44 -36 12 -68 25 -71 30 -3 6 -14 10 -23 10 -13 0 -211 75
-231 87 -2 1 -1 9 2 18 8 19 30 19 68 -1z m5079 -7 c0 -1 -9 -20 -20 -42 -11
-22 -20 -33 -20 -25 0 11 -3 11 -12 2 -8 -8 -8 -15 1 -26 10 -12 5 -29 -27
-93 -22 -43 -59 -123 -83 -178 -23 -55 -53 -125 -67 -155 -41 -92 -49 -113
-68 -165 -9 -27 -21 -54 -24 -60 -6 -9 -126 -269 -180 -390 -19 -43 -147 -303
-175 -356 -13 -25 -18 -24 -64 6 -50 34 -124 42 -175 21 -21 -9 -46 -16 -55
-15 -33 1 -304 151 -330 183 -7 9 -17 14 -21 11 -5 -3 -11 -1 -15 4 -8 14 39
59 117 111 73 49 237 193 253 221 6 10 35 44 65 76 54 57 165 185 205 235 65
83 129 138 160 138 8 0 15 4 15 8 0 4 17 14 38 21 20 8 75 37 120 65 46 28 92
56 102 61 33 20 104 94 96 102 -4 4 -10 3 -14 -3 -10 -15 -246 -174 -314 -212
-32 -18 -58 -28 -58 -24 0 11 54 67 145 152 38 36 70 69 70 74 0 5 9 14 20 20
10 6 41 26 68 44 52 34 67 39 67 21 0 -5 4 -8 10 -4 5 3 7 11 5 18 -3 7 -1 17
3 22 14 19 100 85 111 85 6 0 11 6 11 13 0 14 20 37 32 37 4 0 8 -1 8 -3z
m-6100 -123 c0 -2 -7 -4 -15 -4 -8 0 -15 4 -15 10 0 5 7 7 15 4 8 -4 15 -8 15
-10z m5840 -43 c0 -5 -7 -11 -15 -15 -15 -5 -20 5 -8 17 9 10 23 9 23 -2z
m620 -225 c-11 -35 -36 -63 -46 -53 -3 3 2 20 12 39 34 67 55 76 34 14z m808
-21 c-3 -3 -9 2 -12 12 -6 14 -5 15 5 6 7 -7 10 -15 7 -18z m-4011 -57 c-3 -8
-6 -5 -6 6 -1 11 2 17 5 13 3 -3 4 -12 1 -19z m4138 -58 c3 -5 1 -10 -4 -10
-6 0 -11 5 -11 10 0 6 2 10 4 10 3 0 8 -4 11 -10z m-4119 -47 c-11 -11 -19 6
-11 24 8 17 8 17 12 0 3 -10 2 -21 -1 -24z m34 -189 c12 -12 12 -18 2 -34 -23
-38 -17 -71 64 -315 21 -62 31 -75 58 -75 11 0 28 -5 36 -10 13 -8 12 -12 -8
-25 -23 -17 -52 -65 -52 -86 0 -7 12 4 28 24 15 20 32 36 37 37 6 0 26 11 45
23 50 34 79 39 111 20 50 -30 54 -50 30 -155 -36 -157 -71 -341 -66 -346 8 -8
24 46 30 100 2 29 11 73 20 98 34 105 56 188 62 230 5 40 1 52 -26 91 -55 82
-75 85 -135 21 -19 -20 -38 -34 -41 -30 -10 10 37 68 67 84 31 16 99 19 114 5
11 -12 94 -2 94 10 0 5 -13 9 -30 9 -20 0 -30 5 -30 15 0 23 48 8 87 -26 17
-15 40 -30 50 -33 10 -3 26 -21 36 -38 17 -31 72 -98 81 -98 11 0 11 52 0 67
-7 10 -14 28 -14 41 0 13 -5 33 -11 44 -9 17 -7 25 14 45 l24 25 32 -31 c26
-25 36 -29 62 -24 29 5 37 1 80 -46 26 -28 53 -68 60 -89 18 -59 77 -167 114
-210 55 -64 85 -62 205 13 100 62 91 61 156 22 171 -101 281 -170 298 -187 16
-15 19 -34 20 -107 1 -67 6 -96 19 -116 9 -15 17 -29 16 -33 0 -3 6 -11 13
-17 7 -7 24 -24 37 -39 l23 -26 -22 -64 c-12 -34 -25 -72 -30 -83 -5 -11 -16
-51 -26 -90 -16 -68 -31 -97 -119 -235 -22 -36 -46 -78 -53 -94 -8 -17 -26
-46 -43 -67 -16 -20 -29 -40 -29 -44 0 -12 -54 -94 -62 -95 -8 0 -12 23 -9 46
1 7 -5 14 -14 18 -18 7 -18 7 -4 -49 10 -38 9 -48 -7 -72 -11 -15 -28 -45 -38
-65 -21 -42 -54 -51 -63 -18 -3 11 -10 20 -16 20 -6 0 -7 3 -4 7 8 7 -11 33
-25 33 -5 0 -6 -15 -3 -33 5 -24 2 -37 -9 -46 -9 -8 -16 -12 -17 -10 -8 54 -6
81 5 85 8 3 16 14 19 25 3 13 11 17 21 13 23 -9 20 3 -9 33 -17 19 -23 35 -20
53 3 14 2 19 -1 13 -17 -37 -54 11 -59 77 -1 16 -7 35 -12 42 -6 7 -13 29 -17
49 -3 20 -22 67 -41 105 -19 38 -35 76 -35 85 0 9 -7 20 -16 23 -10 4 -14 1
-12 -7 2 -6 10 -33 18 -59 8 -27 18 -48 22 -48 4 0 8 -11 8 -24 0 -13 6 -39
14 -57 20 -49 31 -129 17 -129 -6 0 -11 6 -11 14 0 18 -57 26 -70 11 -6 -7 -9
-23 -8 -35 2 -13 -2 -24 -7 -26 -17 -7 -67 107 -95 216 -5 19 -18 53 -28 75
-11 22 -22 47 -25 55 -3 9 -6 3 -6 -12 -1 -15 5 -45 13 -65 8 -21 17 -51 21
-68 3 -16 22 -73 42 -125 20 -52 37 -111 39 -130 1 -19 7 -52 12 -72 11 -40 7
-49 -14 -41 -8 3 -17 23 -20 44 -11 65 -26 45 -19 -23 5 -50 2 -70 -12 -98
-20 -39 -46 -49 -69 -26 -17 18 -44 21 -44 6 0 -5 -7 -10 -16 -10 -11 0 -14 6
-9 20 9 27 -10 25 -29 -2 -9 -12 -16 -17 -16 -10 0 6 -7 12 -15 12 -13 0 -20
-17 -17 -41 1 -4 -10 -10 -25 -14 -18 -4 -32 0 -47 14 -27 25 -38 27 -29 5 4
-10 0 -20 -10 -26 -25 -13 -21 -37 8 -50 33 -15 27 -33 -11 -33 -26 0 -29 3
-27 29 2 25 0 28 -25 23 -17 -3 -30 0 -38 11 -14 18 -12 20 -29 -33 -2 -8 -16
-17 -31 -21 -35 -9 -59 19 -69 79 -4 23 -13 53 -20 67 -7 14 -16 44 -20 65 -4
22 -17 69 -30 105 -12 36 -28 97 -35 135 -7 39 -17 78 -22 87 -4 10 -13 39
-18 65 -5 27 -18 86 -28 133 -15 71 -16 93 -6 135 15 64 17 98 4 90 -5 -3 -10
-19 -10 -36 0 -16 -4 -29 -8 -29 -20 0 -66 230 -68 340 -1 41 -4 82 -7 90 -3
8 -8 26 -11 40 -3 14 -12 50 -21 80 -10 30 -30 107 -45 172 -15 64 -30 120
-33 125 -3 4 -21 87 -41 184 -40 192 -39 220 2 282 14 20 23 39 21 41 -2 2
-30 6 -61 9 -47 4 -59 2 -74 -14 -21 -23 -42 -26 -23 -2 36 42 133 53 169 17z
m288 -110 c12 -8 19 -20 16 -26 -4 -7 -2 -8 5 -4 6 4 24 0 39 -10 15 -10 45
-28 67 -40 32 -17 41 -28 43 -53 3 -32 -9 -39 -37 -22 -19 12 -51 -4 -51 -24
0 -10 -11 -15 -34 -15 -19 0 -41 -3 -49 -6 -12 -4 -14 2 -10 33 4 38 -8 132
-22 166 -9 21 4 22 33 1z m302 -135 c0 -5 7 -9 16 -9 9 0 14 -7 12 -17 -2 -13
-18 -20 -57 -26 -64 -9 -81 1 -62 36 9 17 22 23 52 24 21 1 39 -2 39 -8z m34
-125 c4 -10 1 -14 -6 -12 -15 5 -23 28 -10 28 5 0 13 -7 16 -16z m-1884 -139
c0 -8 -4 -17 -10 -20 -6 -4 -10 5 -10 20 0 15 4 24 10 20 6 -3 10 -12 10 -20z
m2740 -46 c0 -6 -4 -7 -10 -4 -5 3 -10 11 -10 16 0 6 5 7 10 4 6 -3 10 -11 10
-16z m1566 -15 c-4 -12 -10 -14 -17 -7 -5 5 -7 17 -3 27 4 12 10 14 17 7 5 -5
7 -17 3 -27z m-4271 -142 c9 -43 -8 -41 -24 3 -7 19 -17 35 -22 35 -13 0 -11
18 3 34 11 11 15 9 24 -14 7 -15 15 -41 19 -58z m-140 -39 c6 -20 15 -38 21
-40 16 -5 27 28 14 41 -20 20 -10 28 15 12 13 -9 31 -16 40 -16 8 0 15 -4 15
-10 0 -5 -4 -10 -10 -10 -5 0 -10 -7 -10 -15 0 -17 21 -20 37 -4 16 16 20 3
38 -96 18 -106 19 -125 2 -125 -14 0 -41 38 -43 60 -3 36 -5 41 -14 35 -6 -4
-8 -11 -5 -16 4 -5 -1 -9 -9 -9 -9 0 -22 16 -30 35 -15 35 -46 48 -46 20 0 -8
-9 -15 -20 -15 -11 0 -20 5 -20 10 0 6 -7 10 -15 10 -19 0 -19 20 1 48 12 17
14 36 8 84 -5 53 -4 61 7 50 8 -7 18 -29 24 -49z m-62 -164 c5 -17 11 -20 30
-15 18 4 32 -1 53 -20 22 -19 23 -23 7 -15 -12 6 -34 11 -50 10 l-28 -1 33
-14 c17 -8 32 -19 32 -24 0 -14 -11 -12 -33 5 -11 7 -26 11 -34 8 -20 -8 -33
14 -33 55 0 36 15 43 23 11z m166 -109 c9 -29 31 -42 31 -19 0 5 5 7 10 4 6
-4 10 -12 9 -18 -4 -29 2 -47 15 -47 7 0 16 -9 19 -20 3 -13 0 -20 -9 -20 -8
0 -14 4 -14 9 0 5 -23 32 -51 59 -38 38 -56 48 -72 44 -22 -5 -22 -5 -3 16 27
31 52 28 65 -8z m-158 -48 c-5 -10 -24 -30 -41 -47 l-33 -30 7 28 c9 37 -9 34
-25 -5 -10 -24 -10 -33 -1 -36 8 -2 9 -9 2 -22 -11 -20 -4 -50 11 -50 5 0 8 3
8 8 -5 30 4 30 15 -1 18 -48 8 -91 -22 -95 -27 -4 -28 -18 -2 -34 11 -7 20
-23 20 -35 0 -25 16 -39 23 -21 3 10 9 10 25 1 39 -23 44 13 7 53 -15 16 -24
37 -23 53 1 14 -2 37 -6 50 -7 19 -3 28 15 43 24 18 24 18 4 34 -18 15 -18 16
-2 10 10 -3 28 -6 39 -6 11 0 22 -8 25 -20 7 -27 17 -25 32 6 9 20 9 30 0 40
-16 19 -46 17 -53 -3 -6 -15 -8 -15 -16 -3 -14 21 -12 43 2 34 7 -5 9 -2 5 8
-3 9 3 24 14 34 18 16 21 16 55 -2 20 -10 64 -46 99 -79 51 -49 63 -67 68
-100 3 -22 17 -118 31 -214 14 -95 26 -178 26 -184 0 -6 -17 -7 -47 -2 -27 4
-83 7 -125 6 -65 -2 -78 1 -78 14 0 19 -1 19 -64 -2 -106 -34 -174 -64 -180
-79 -3 -8 15 -18 52 -29 31 -9 91 -27 132 -40 91 -28 127 -37 160 -40 14 -1
62 -12 107 -24 45 -11 92 -21 105 -21 40 0 148 -41 148 -56 0 -13 24 -21 130
-44 63 -13 177 -45 235 -66 23 -8 53 -14 67 -14 15 0 29 -4 32 -9 3 -4 27 -14
53 -20 117 -30 319 -93 352 -110 9 -5 41 -11 71 -14 l55 -7 -2 243 c-1 145 3
244 8 248 6 3 13 38 16 78 7 84 20 82 33 -5 10 -69 62 -313 89 -423 31 -125
35 -161 17 -161 -25 0 -29 -21 -7 -41 12 -11 21 -24 21 -29 0 -24 20 -7 21 18
0 24 1 25 9 7 4 -11 4 -24 -1 -30 -11 -12 -12 -65 -1 -65 11 0 35 -51 28 -58
-6 -5 -73 24 -96 42 -19 15 -117 44 -290 85 -74 18 -155 39 -180 47 -112 34
-414 96 -555 113 -38 5 -119 19 -180 30 -60 12 -169 33 -241 46 -73 13 -149
28 -170 34 -22 6 -62 11 -89 11 -28 0 -75 6 -105 14 -74 19 -194 38 -255 40
-45 1 -51 -1 -63 -27 -13 -27 -15 -28 -33 -11 -27 24 -24 34 20 102 39 58 93
112 113 112 5 0 8 8 6 18 -3 15 -14 17 -95 14 -60 -2 -100 1 -115 9 -13 7 -36
14 -51 16 -41 4 -67 21 -67 43 0 16 4 17 32 9 18 -5 41 -9 50 -9 26 0 22 26
-4 35 -19 5 -13 9 32 20 34 8 59 10 65 4 5 -5 17 -9 27 -9 10 0 21 -7 25 -15
5 -14 8 -14 24 1 11 10 28 18 39 19 25 2 92 36 107 55 17 20 16 47 -1 53 -10
4 -16 -2 -18 -15 -2 -11 -13 -24 -24 -29 -19 -6 -21 -4 -16 13 4 17 2 20 -12
15 -11 -4 -29 1 -46 13 -15 11 -33 20 -38 20 -6 0 -8 9 -5 20 8 29 -15 25 -29
-5 -12 -26 -28 -34 -28 -12 0 14 -35 39 -44 30 -3 -4 -6 -22 -6 -40 0 -28 -4
-34 -17 -31 -10 2 -17 11 -15 19 1 9 -7 24 -18 34 -11 10 -20 26 -20 37 0 25
-13 23 -43 -8 -26 -26 -26 -26 -39 -5 -7 12 -18 21 -25 21 -7 0 -17 9 -23 21
-10 17 -9 20 7 18 21 -3 63 9 63 19 0 4 -8 21 -18 37 -10 17 -19 42 -20 56
l-2 26 95 0 c52 0 100 4 107 10 7 6 38 13 68 16 30 3 63 8 73 12 12 5 17 2 17
-9 0 -19 2 -19 32 -7 13 5 32 12 43 16 20 6 20 7 1 21 -18 12 -18 14 -3 14 10
0 20 7 23 15 3 8 16 17 27 21 22 6 97 53 107 66 3 3 17 9 32 13 15 4 42 22 60
40 33 33 33 33 50 13 12 -14 15 -25 9 -36z m3491 -99 c-10 -15 -25 -46 -32
-68 -7 -22 -18 -47 -25 -55 -8 -8 -16 -27 -20 -42 -4 -14 -15 -34 -26 -44 -10
-9 -19 -23 -19 -31 0 -7 -4 -22 -10 -33 -5 -11 -15 -29 -20 -40 -17 -33 -40
-104 -40 -122 0 -10 -4 -18 -9 -18 -4 0 -14 -21 -20 -47 -7 -27 -24 -73 -37
-103 -14 -30 -27 -68 -28 -84 -2 -15 -8 -31 -12 -35 -5 -3 -15 -28 -22 -56
-13 -51 -65 -115 -77 -95 -3 6 -3 15 1 21 4 6 10 25 15 43 6 27 51 142 78 201
5 11 18 45 29 75 11 30 36 89 56 129 20 41 36 79 36 85 0 6 11 33 25 60 14 27
25 57 25 67 0 22 82 167 115 203 32 35 44 27 17 -11z m-4296 -99 c28 -5 29 -7
29 -69 0 -38 -5 -69 -13 -77 -10 -10 -11 1 -8 55 l4 67 -29 0 c-17 0 -32 -6
-35 -15 -4 -8 -16 -15 -28 -15 -16 0 -18 -2 -7 -9 14 -9 9 -41 -6 -41 -42 1
-40 65 2 76 13 3 29 12 36 20 13 16 15 16 55 8z m-179 -82 c14 -19 19 -37 16
-55 -3 -15 -1 -27 3 -27 5 0 15 -10 22 -21 13 -20 12 -21 -12 -15 -14 3 -26 2
-26 -3 0 -23 -52 -17 -90 10 -32 23 -39 34 -38 61 1 48 14 66 51 71 17 2 37 5
43 5 5 1 20 -11 31 -26z m98 -52 c3 -5 -1 -10 -10 -10 -9 0 -13 5 -10 10 3 6
8 10 10 10 2 0 7 -4 10 -10z m4735 -54 c0 -22 -5 -77 -12 -123 -10 -66 -15
-83 -28 -81 -12 3 -14 17 -12 73 3 68 19 171 29 189 10 15 23 -18 23 -58z
m490 12 c0 -5 7 -25 16 -44 17 -35 14 -52 -5 -39 -16 10 -42 77 -36 93 5 14
25 7 25 -10z m-5210 -57 c0 -5 -7 -11 -15 -15 -15 -5 -20 5 -8 17 9 10 23 9
23 -2z m230 -11 c0 -5 -4 -10 -10 -10 -5 0 -10 5 -10 10 0 6 5 10 10 10 6 0
10 -4 10 -10z m-290 -11 c0 -4 -7 -9 -15 -13 -8 -3 -15 -17 -15 -31 0 -44 -32
-25 -45 27 -7 26 -6 27 34 25 23 -1 41 -4 41 -8z m469 -25 c-14 -18 -24 -11
-15 11 3 9 11 13 16 10 8 -5 7 -11 -1 -21z m-459 -34 c0 -5 -7 -10 -16 -10 -8
0 -12 5 -9 10 3 6 10 10 16 10 5 0 9 -4 9 -10z m487 -6 c-3 -3 -12 -4 -19 -1
-8 3 -5 6 6 6 11 1 17 -2 13 -5z m-457 -44 c0 -5 -8 -10 -17 -11 -12 -1 -10
-4 7 -9 21 -7 21 -8 5 -9 -27 -1 -49 14 -41 28 9 14 46 15 46 1z m910 -30
c-36 -11 -52 -11 -45 0 3 6 21 10 38 9 31 -1 31 -1 7 -9z m-799 -20 c21 0 7
-31 -18 -41 -22 -8 -30 -6 -47 10 l-20 20 25 10 c13 5 30 8 37 5 8 -2 18 -4
23 -4z m1461 -156 c24 -16 37 -29 30 -32 -13 -4 -87 42 -99 61 -9 14 18 3 69
-29z m1796 -51 c-1 -5 1 -26 6 -47 7 -37 -1 -55 -27 -56 -16 0 -25 45 -12 60
6 8 15 23 18 33 6 16 19 25 15 10z m52 -13 c0 -5 -2 -10 -4 -10 -3 0 -8 5 -11
10 -3 6 -1 10 4 10 6 0 11 -4 11 -10z m52 -71 c-8 -46 -10 -49 -11 -19 -1 24
-8 39 -22 49 l-22 13 24 12 c35 19 42 5 31 -55z m2043 -5 c0 -10 -8 -20 -17
-22 -18 -3 -26 27 -11 42 12 11 28 0 28 -20z m-2107 -69 c2 -26 -1 -52 -7 -58
-16 -16 -26 22 -12 44 9 15 8 19 -3 19 -22 0 -30 19 -15 36 20 25 34 10 37
-41z m88 -47 c9 -14 -2 -21 -25 -13 -28 8 -28 35 -1 28 11 -3 23 -10 26 -15z
m-2081 -69 c5 -5 -2 -9 -17 -9 -35 0 -59 10 -52 21 6 10 54 1 69 -12z m1925
-5 c0 -8 -4 -12 -10 -9 -5 3 -10 10 -10 16 0 5 5 9 10 9 6 0 10 -7 10 -16z
m-2340 -14 c0 -5 -4 -10 -10 -10 -5 0 -10 5 -10 10 0 6 5 10 10 10 6 0 10 -4
10 -10z m1945 -20 c3 -5 1 -10 -4 -10 -6 0 -11 5 -11 10 0 6 2 10 4 10 3 0 8
-4 11 -10z m-2220 -61 c-9 -14 -45 -11 -45 4 0 8 3 17 6 20 10 9 46 -12 39
-24z m426 -32 c51 -24 88 -46 83 -49 -13 -8 -139 26 -169 46 -25 17 -30 27
-18 39 9 9 1 12 104 -36z m84 -5 c-3 -3 -11 0 -18 7 -9 10 -8 11 6 5 10 -3 15
-9 12 -12z m1558 1 c-7 -2 -19 -2 -25 0 -7 3 -2 5 12 5 14 0 19 -2 13 -5z
m159 -22 c31 -4 63 -12 70 -19 8 -6 24 -9 36 -5 15 4 22 1 22 -9 0 -9 10 -15
28 -15 57 0 123 -15 129 -29 3 -8 15 -14 27 -14 11 0 39 -9 61 -20 l40 -20
-50 5 c-93 9 -130 16 -160 30 -16 8 -57 21 -90 31 -33 9 -75 23 -93 31 -18 8
-51 17 -74 21 -23 4 -44 14 -46 21 -4 11 1 12 19 7 13 -4 49 -11 81 -15z m984
-75 c-15 -30 -34 -57 -42 -60 -19 -7 -18 18 1 34 8 7 15 19 15 28 0 17 40 65
48 57 3 -3 -7 -29 -22 -59z m-1786 19 c30 -4 88 -20 127 -36 40 -16 109 -41
153 -55 73 -24 92 -39 74 -57 -4 -4 -23 2 -43 12 -44 23 -253 97 -300 106 -40
8 -101 33 -101 41 0 3 8 3 18 0 9 -2 42 -8 72 -11z m1418 -133 c3 -9 -2 -13
-14 -10 -9 1 -19 9 -22 16 -3 9 2 13 14 10 9 -1 19 -9 22 -16z m292 4 c0 -16
-18 -31 -27 -22 -8 8 5 36 17 36 5 0 10 -6 10 -14z m-1203 -33 c-3 -10 -5 -4
-5 12 0 17 2 24 5 18 2 -7 2 -21 0 -30z m963 17 c8 -5 12 -12 9 -15 -8 -8 -39
5 -39 16 0 11 11 11 30 -1z m-931 -135 l-1 -40 -14 50 c-7 28 -13 59 -13 70 1
39 28 -38 28 -80z m-869 -255 c0 -5 -15 -9 -32 -9 -49 2 -77 -13 -141 -75 -31
-31 -59 -56 -62 -56 -10 0 -5 39 11 76 24 58 52 71 157 73 37 1 67 -3 67 -9z
m870 -325 c-7 -9 -15 -13 -17 -11 -7 7 7 26 19 26 6 0 6 -6 -2 -15z m-30 -34
c0 -5 -7 -11 -15 -15 -15 -5 -20 5 -8 17 9 10 23 9 23 -2z m-74 -68 c-14 -14
-30 -23 -34 -19 -3 4 4 16 18 26 37 29 47 24 16 -7z m-67 -58 c-17 -15 -79
-37 -79 -27 1 13 85 61 89 50 2 -5 -3 -16 -10 -23z m-158 -90 c0 -5 -10 -12
-23 -14 -12 -1 -35 -12 -50 -23 -18 -12 -36 -17 -48 -13 -12 4 -27 2 -34 -5
-8 -6 -22 -13 -32 -15 -11 -2 -29 -7 -41 -11 -13 -3 -23 -2 -23 2 0 12 76 45
119 52 18 3 50 13 70 23 38 19 62 21 62 4z m-211 -105 c0 -5 -7 -10 -16 -10
-8 0 -12 5 -9 10 3 6 10 10 16 10 5 0 9 -4 9 -10z m-172 -32 c-3 -7 -14 -17
-26 -23 -12 -5 -25 -18 -28 -28 -3 -10 -10 -14 -17 -10 -17 11 -66 12 -73 2
-7 -12 -24 -11 -24 1 0 6 5 10 11 10 7 0 17 7 23 14 6 8 36 22 66 30 70 18 72
18 68 4z m1152 -33 c0 -8 -2 -15 -4 -15 -2 0 -6 7 -10 15 -3 8 -1 15 4 15 6 0
10 -7 10 -15z m14 -99 c-3 -9 -10 -16 -14 -16 -10 0 -21 59 -13 72 9 15 34
-37 27 -56z m-1964 -77 c0 -5 -16 -9 -36 -9 -30 0 -34 3 -25 14 12 14 61 10
61 -5z m1962 -49 c3 -17 1 -33 -4 -36 -4 -3 -8 11 -8 30 0 44 6 47 12 6z"/>
<path d="M7045 7719 c-4 -6 -5 -13 -2 -16 7 -7 27 6 27 18 0 12 -17 12 -25 -2z"/>
<path d="M7110 7722 c0 -14 59 -66 67 -59 7 8 -23 44 -49 58 -10 5 -18 6 -18
1z"/>
<path d="M7248 7648 c-27 -6 -48 -14 -48 -18 0 -11 60 -54 66 -48 2 3 -2 11
-11 18 -8 7 -15 19 -15 27 0 23 232 15 279 -9 42 -22 58 -23 41 -3 -32 39
-199 56 -312 33z"/>
<path d="M6962 7619 c2 -6 8 -10 13 -10 5 0 11 4 13 10 2 6 -4 11 -13 11 -9 0
-15 -5 -13 -11z"/>
<path d="M7310 7590 c0 -5 4 -10 9 -10 6 0 13 5 16 10 3 6 -1 10 -9 10 -9 0
-16 -4 -16 -10z"/>
<path d="M6980 7549 c6 -11 18 -23 26 -26 17 -6 74 -89 76 -111 1 -10 -1 -42
-6 -73 -7 -47 -4 -68 14 -119 22 -62 71 -144 100 -168 9 -7 29 -10 50 -8 21 4
40 0 50 -8 21 -19 137 -26 169 -10 14 7 38 17 54 23 15 6 27 16 27 22 0 15 55
5 86 -16 15 -10 20 -21 17 -39 -11 -54 -82 -88 -160 -76 -39 6 -58 3 -103 -17
-45 -20 -56 -22 -65 -10 -5 7 -25 17 -44 20 -46 10 -88 43 -141 113 -24 33
-51 66 -59 74 -21 19 -51 85 -51 110 0 10 -5 22 -11 26 -7 4 -10 -6 -8 -29 5
-49 -6 -56 -36 -22 -13 16 -28 26 -32 21 -4 -4 11 -24 33 -45 23 -20 53 -59
67 -87 32 -64 64 -101 130 -155 l52 -43 -62 65 c-60 63 -113 133 -113 150 0
19 16 7 33 -24 31 -57 152 -174 189 -182 18 -4 41 -13 50 -19 13 -8 21 -8 26
0 4 5 29 17 57 26 41 13 57 13 95 3 68 -19 195 -80 264 -127 33 -24 84 -54
111 -67 28 -13 69 -45 93 -70 45 -49 59 -37 20 17 -36 49 -153 183 -198 226
-22 22 -40 43 -40 47 0 5 -14 24 -30 43 -27 30 -29 37 -19 54 11 17 9 25 -14
55 -25 34 -26 39 -16 86 7 35 7 61 0 88 -6 21 -11 57 -11 80 0 23 -5 45 -11
49 -6 3 -9 17 -6 30 2 13 -1 32 -8 41 -11 14 -15 15 -29 4 -13 -11 -21 -7 -52
23 -38 37 -58 44 -69 26 -3 -5 0 -10 8 -10 19 0 101 -77 118 -110 14 -28 23
-151 11 -160 -5 -3 -30 -32 -57 -65 -27 -33 -56 -60 -64 -61 -26 -1 -51 -15
-51 -29 0 -30 -92 -42 -135 -17 -11 6 2 7 39 4 63 -5 79 13 19 21 -91 12 -182
79 -183 135 0 12 -6 22 -14 22 -12 0 -12 6 0 38 7 20 13 46 14 58 0 36 34 91
78 127 38 32 60 40 130 50 7 1 14 7 15 12 4 21 -64 16 -117 -8 -78 -36 -130
-112 -147 -217 -8 -50 -6 -67 12 -117 12 -32 26 -64 32 -71 5 -7 6 -16 2 -20
-4 -4 -10 -1 -12 6 -3 7 -10 18 -16 25 -51 56 -60 108 -36 204 19 78 19 84 4
105 l-17 23 7 -22 c10 -35 -11 -27 -25 10 -30 76 -36 87 -50 87 -8 0 -24 7
-34 15 -28 21 -39 19 -26 -6z m627 -371 c-3 -8 -6 -5 -6 6 -1 11 2 17 5 13 3
-3 4 -12 1 -19z m38 -84 c31 -40 27 -60 -5 -23 -29 34 -42 59 -32 59 6 0 22
-16 37 -36z m63 -134 c12 -16 22 -32 22 -36 0 -4 28 -37 63 -73 71 -75 113
-131 99 -131 -5 0 -39 23 -75 51 -64 49 -113 79 -189 116 -21 10 -38 20 -38
23 0 11 72 80 84 80 7 0 22 -13 34 -30z"/>
<path d="M7570 7520 c8 -5 20 -10 25 -10 6 0 3 5 -5 10 -8 5 -19 10 -25 10 -5
0 -3 -5 5 -10z"/>
<path d="M7020 7411 c-7 -17 -10 -35 -8 -42 2 -6 11 7 20 30 18 46 7 57 -12
12z"/>
<path d="M6830 7397 c0 -12 7 -32 14 -43 8 -12 14 -30 14 -40 -2 -21 29 -74
43 -74 14 0 11 16 -6 30 -9 7 -13 20 -10 28 7 18 -33 122 -46 122 -5 0 -9 -10
-9 -23z"/>
<path d="M6780 7355 c7 -9 15 -13 17 -11 7 7 -7 26 -19 26 -6 0 -6 -6 2 -15z"/>
<path d="M6991 7338 c0 -7 4 -22 8 -32 10 -25 22 -6 14 22 -6 23 -23 31 -22
10z"/>
<path d="M7520 7312 c0 -4 5 -13 12 -20 16 -16 28 -15 28 2 0 8 -7 17 -16 20
-21 8 -24 8 -24 -2z"/>
<path d="M6780 7290 c0 -11 5 -20 11 -20 5 0 19 -20 30 -45 19 -43 29 -52 41
-39 3 3 -8 32 -24 65 -29 58 -58 78 -58 39z"/>
<path d="M7760 7241 c0 -37 -8 -77 -20 -106 -24 -56 -25 -61 -5 -45 32 27 28
-3 -4 -32 l-34 -31 24 -18 c24 -18 41 -17 22 2 -8 8 -3 22 16 51 22 34 26 52
27 121 2 89 -2 117 -17 117 -5 0 -9 -27 -9 -59z"/>
<path d="M6730 7242 c0 -11 55 -88 69 -97 6 -3 11 -2 11 4 0 5 -6 14 -12 18
-7 4 -22 25 -32 46 -18 34 -36 49 -36 29z"/>
<path d="M6580 7230 c0 -22 53 -123 68 -128 29 -9 5 47 -52 123 -12 15 -15 16
-16 5z"/>
<path d="M6545 7165 c4 -11 11 -33 15 -50 12 -47 21 -66 57 -124 37 -58 50
-63 30 -12 -9 25 -9 33 1 40 9 6 7 12 -8 26 -11 10 -30 35 -42 54 -32 53 -63
91 -53 66z"/>
<path d="M6740 7151 c0 -5 5 -13 10 -16 6 -3 10 -2 10 4 0 5 -4 13 -10 16 -5
3 -10 2 -10 -4z"/>
<path d="M6441 7134 c0 -11 3 -14 6 -6 3 7 2 16 -1 19 -3 4 -6 -2 -5 -13z"/>
<path d="M6404 7116 c-21 -55 42 -270 72 -245 19 16 17 32 -5 55 -23 26 -29
43 -36 124 -7 68 -20 96 -31 66z"/>
<path d="M6813 7088 c7 -17 18 -33 25 -36 7 -2 3 12 -9 32 -26 45 -33 46 -16
4z"/>
<path d="M6524 7084 c3 -9 6 -18 6 -20 0 -3 4 -3 10 1 11 7 2 35 -12 35 -6 0
-7 -7 -4 -16z"/>
<path d="M6853 7093 c50 -56 145 -143 155 -143 20 0 -68 98 -100 111 -14 6
-29 17 -32 25 -3 8 -11 14 -17 14 -7 0 -9 -3 -6 -7z"/>
<path d="M6716 7068 c4 -13 13 -32 20 -43 8 -11 14 -26 14 -33 0 -11 -5 -11
-26 3 -37 24 -44 9 -9 -20 60 -49 73 -19 29 65 -28 53 -40 65 -28 28z"/>
<path d="M6785 7050 c3 -5 8 -10 11 -10 2 0 4 5 4 10 0 6 -5 10 -11 10 -5 0
-7 -4 -4 -10z"/>
<path d="M6880 6995 c0 -8 7 -15 16 -15 14 0 14 3 4 15 -7 8 -14 15 -16 15 -2
0 -4 -7 -4 -15z"/>
<path d="M7810 6912 c0 -13 119 -126 126 -120 3 4 -12 26 -35 49 -23 24 -41
46 -41 49 0 4 -11 12 -25 18 -14 6 -25 8 -25 4z"/>
<path d="M6696 6896 c3 -8 16 -22 29 -30 48 -32 43 -10 -5 24 -21 15 -28 17
-24 6z"/>
<path d="M7251 6835 c-27 -31 -39 -55 -28 -55 8 0 69 82 64 86 -2 3 -18 -11
-36 -31z"/>
<path d="M7160 6717 c-25 -34 -58 -86 -74 -117 -16 -30 -41 -73 -56 -95 -15
-22 -49 -75 -76 -117 -27 -42 -53 -77 -59 -78 -5 0 -23 26 -40 58 -32 61 -75
112 -94 112 -7 0 2 -17 18 -37 17 -21 46 -68 65 -104 l36 -67 -16 -53 c-9 -30
-22 -64 -30 -76 -8 -13 -10 -23 -4 -23 10 0 80 139 80 160 0 7 12 27 28 45 15
18 41 56 57 85 17 29 37 64 45 79 8 14 34 60 57 101 22 41 53 89 68 105 24 28
49 74 43 80 -2 2 -23 -24 -48 -58z"/>
<path d="M7960 6750 c0 -5 8 -18 19 -29 10 -10 32 -44 49 -74 40 -72 64 -109
69 -104 7 7 -30 80 -64 126 -18 24 -33 50 -33 57 0 7 -9 18 -20 24 -14 7 -20
7 -20 0z"/>
<path d="M7872 6420 c0 -14 2 -19 5 -12 2 6 2 18 0 25 -3 6 -5 1 -5 -13z"/>
<path d="M8132 6400 c0 -14 2 -19 5 -12 2 6 2 18 0 25 -3 6 -5 1 -5 -13z"/>
<path d="M4780 6373 c0 -11 66 -63 79 -63 18 0 12 18 -8 25 -10 3 -26 14 -36
25 -18 20 -35 26 -35 13z"/>
<path d="M7880 6366 c0 -8 5 -18 10 -21 6 -3 10 3 10 14 0 12 -4 21 -10 21 -5
0 -10 -6 -10 -14z"/>
<path d="M8241 6314 c-28 -47 -27 -65 2 -23 36 54 39 59 29 59 -6 0 -19 -16
-31 -36z"/>
<path d="M8142 6300 c0 -14 2 -19 5 -12 2 6 2 18 0 25 -3 6 -5 1 -5 -13z"/>
<path d="M6680 6292 c0 -37 78 -213 101 -227 13 -9 11 13 -5 43 -7 15 -23 46
-36 70 -12 24 -19 46 -15 50 9 9 44 -39 45 -60 0 -20 16 -32 30 -23 12 7 -31
88 -68 128 -25 26 -52 36 -52 19z"/>
<path d="M4820 6283 c0 -5 9 -14 20 -21 11 -7 20 -8 20 -2 0 5 -9 14 -20 20
-11 6 -20 7 -20 3z"/>
<path d="M3560 6260 c0 -11 5 -20 10 -20 6 0 10 9 10 20 0 11 -4 20 -10 20 -5
0 -10 -9 -10 -20z"/>
<path d="M5065 6226 c28 -24 52 -42 53 -41 6 5 -82 85 -93 85 -5 0 13 -20 40
-44z"/>
<path d="M7910 6241 c0 -12 5 -21 10 -21 6 0 10 6 10 14 0 8 -4 18 -10 21 -5
3 -10 -3 -10 -14z"/>
<path d="M7715 6240 c3 -5 8 -10 11 -10 2 0 4 5 4 10 0 6 -5 10 -11 10 -5 0
-7 -4 -4 -10z"/>
<path d="M8191 6232 c-7 -13 -11 -26 -8 -28 8 -8 29 25 25 38 -3 8 -9 4 -17
-10z"/>
<path d="M4580 6200 c0 -8 5 -22 10 -30 9 -13 10 -13 10 0 0 8 -5 22 -10 30
-9 13 -10 13 -10 0z"/>
<path d="M7920 6182 c0 -18 4 -32 9 -32 4 0 11 -34 14 -76 3 -42 11 -82 18
-88 12 -12 12 -11 -11 139 -12 76 -30 111 -30 57z"/>
<path d="M8130 6191 c0 -10 -7 -32 -15 -47 -8 -16 -15 -41 -15 -55 0 -15 -7
-32 -15 -39 -16 -14 -21 -70 -5 -70 5 0 12 17 16 38 4 20 13 50 22 67 14 28
28 125 17 125 -3 0 -5 -8 -5 -19z"/>
<path d="M7995 6187 c-4 -9 -3 -23 3 -30 5 -6 12 -21 15 -32 4 -16 5 -15 5 5
0 14 -3 36 -8 50 -6 22 -8 23 -15 7z"/>
<path d="M5137 6184 c-8 -9 107 -114 158 -144 48 -28 159 -130 169 -155 7 -19
37 -17 44 3 2 7 -5 12 -17 12 -12 0 -21 5 -21 11 0 13 -109 119 -122 119 -16
0 -131 90 -161 126 -28 34 -38 39 -50 28z"/>
<path d="M5030 6170 c0 -5 5 -10 11 -10 5 0 7 5 4 10 -3 6 -8 10 -11 10 -2 0
-4 -4 -4 -10z"/>
<path d="M5270 6177 c0 -8 142 -98 147 -93 3 3 -19 20 -48 39 -62 39 -99 59
-99 54z"/>
<path d="M6590 6138 c0 -12 23 -68 50 -124 55 -111 58 -125 34 -148 -29 -30
-60 -20 -93 31 -35 53 -41 50 -11 -5 29 -55 42 -67 75 -69 24 -1 35 5 52 30
24 35 40 89 27 86 -21 -3 -34 2 -34 14 0 7 -22 56 -50 110 -29 57 -50 88 -50
75z"/>
<path d="M7760 6146 c0 -7 13 -40 30 -72 16 -32 30 -64 30 -71 0 -6 6 -24 14
-40 8 -15 21 -45 30 -65 9 -21 20 -38 26 -38 14 0 13 16 -4 48 -7 15 -17 43
-21 62 -4 19 -18 49 -31 66 -13 17 -24 36 -24 42 0 12 -39 82 -46 82 -2 0 -4
-6 -4 -14z"/>
<path d="M3591 6084 c0 -11 3 -14 6 -6 3 7 2 16 -1 19 -3 4 -6 -2 -5 -13z"/>
<path d="M5438 6065 c19 -37 77 -85 110 -91 21 -4 32 -3 32 5 0 6 -9 11 -20
11 -11 0 -37 15 -57 33 -21 18 -47 39 -57 47 -18 14 -18 14 -8 -5z"/>
<path d="M6130 5935 c0 -8 6 -15 13 -15 7 0 34 -22 59 -50 25 -27 51 -50 56
-50 6 0 32 10 59 21 53 23 44 38 -12 19 -31 -10 -39 -9 -70 10 -19 12 -45 34
-59 51 -27 32 -46 38 -46 14z"/>
<path d="M5737 5880 c9 -16 23 -30 30 -30 7 0 33 -11 58 -25 36 -21 45 -23 45
-10 0 8 -5 15 -10 15 -6 0 -38 18 -71 40 -33 22 -63 40 -65 40 -3 0 3 -13 13
-30z"/>
<path d="M4670 5890 c0 -5 5 -10 11 -10 5 0 7 5 4 10 -3 6 -8 10 -11 10 -2 0
-4 -4 -4 -10z"/>
<path d="M6387 5884 c-10 -10 2 -24 22 -24 9 0 30 -13 46 -30 31 -32 54 -31
31 2 -14 20 -69 58 -85 58 -4 0 -11 -3 -14 -6z"/>
<path d="M7620 5865 c0 -8 7 -15 15 -15 9 0 12 6 9 15 -4 8 -10 15 -15 15 -5
0 -9 -7 -9 -15z"/>
<path d="M7547 5863 c-12 -11 -8 -23 8 -23 8 0 15 7 15 15 0 16 -12 20 -23 8z"/>
<path d="M7756 5855 c4 -9 12 -14 18 -12 6 2 19 0 28 -4 10 -6 19 -5 23 1 6
10 -1 14 -47 24 -22 5 -26 3 -22 -9z"/>
<path d="M7671 5850 c-19 -11 5 -23 25 -12 14 8 14 10 2 15 -8 3 -21 2 -27 -3z"/>
<path d="M6370 5824 c0 -4 8 -13 18 -20 15 -11 17 -32 17 -172 0 -88 4 -164 8
-168 13 -13 27 18 27 62 0 50 20 80 134 202 l30 32 -46 -6 c-29 -4 -48 -2 -52
5 -4 6 -16 11 -26 11 -11 0 -35 14 -53 30 -32 28 -57 38 -57 24z"/>
<path d="M5910 5785 c0 -7 61 -37 67 -32 2 3 -10 12 -28 21 -35 17 -39 19 -39
11z"/>
<path d="M4501 5775 c0 -5 6 -21 14 -35 8 -14 14 -20 14 -15 0 6 -6 21 -14 35
-8 14 -14 21 -14 15z"/>
<path d="M7480 5755 c0 -8 2 -15 4 -15 2 0 6 7 10 15 3 8 1 15 -4 15 -6 0 -10
-7 -10 -15z"/>
<path d="M6617 5745 c-9 -28 -63 -123 -91 -159 -13 -17 -32 -51 -44 -76 -26
-56 -48 -81 -87 -99 -16 -7 -37 -17 -45 -21 -8 -4 -20 -28 -27 -55 -7 -26 -14
-50 -17 -52 -3 -3 -31 -6 -64 -7 -56 -3 -61 -1 -128 50 -66 50 -91 62 -65 30
7 -8 39 -34 72 -58 32 -24 59 -48 59 -55 0 -9 8 -8 28 3 16 8 41 12 62 8 99
-16 96 -15 78 -4 -39 24 -10 109 44 130 47 19 96 68 104 104 3 17 14 42 24 56
37 54 111 201 108 212 -3 7 -7 4 -11 -7z"/>
<path d="M7748 5741 c-16 -14 -16 -15 5 -26 16 -8 21 -19 19 -38 -1 -15 2 -27
8 -27 5 0 10 7 10 16 0 11 5 14 16 10 15 -6 15 -4 3 11 -8 10 -19 23 -26 28
-6 6 -13 17 -15 25 -3 14 -5 14 -20 1z"/>
<path d="M4878 5683 c2 -32 8 -63 14 -70 5 -7 31 -19 58 -28 42 -14 49 -20 54
-50 7 -37 37 -58 119 -84 20 -7 37 -16 37 -20 0 -5 18 -11 39 -15 47 -7 56
-18 41 -46 -6 -12 -10 -28 -8 -37 2 -9 11 1 24 27 20 39 21 44 6 61 -9 10 -23
19 -32 19 -37 0 -200 65 -200 80 0 4 -3 16 -6 25 -6 15 0 17 50 14 54 -4 69 2
45 17 -6 4 -42 8 -80 10 -97 4 -123 19 -127 69 -2 39 -19 85 -31 85 -3 0 -4
-26 -3 -57z"/>
<path d="M5155 5730 c3 -5 11 -10 17 -10 6 0 20 -8 30 -17 14 -12 21 -14 30
-5 8 8 7 13 -8 17 -10 4 -27 11 -36 16 -23 12 -41 12 -33 -1z"/>
<path d="M7825 5730 c-3 -5 1 -10 10 -10 9 0 13 5 10 10 -3 6 -8 10 -10 10 -2
0 -7 -4 -10 -10z"/>
<path d="M4820 5720 c0 -8 5 -22 10 -30 9 -13 10 -13 10 0 0 8 -5 22 -10 30
-9 13 -10 13 -10 0z"/>
<path d="M7540 5684 c0 -8 5 -12 10 -9 6 4 8 11 5 16 -9 14 -15 11 -15 -7z"/>
<path d="M7720 5660 c0 -19 3 -21 12 -12 9 9 9 15 0 24 -9 9 -12 7 -12 -12z"/>
<path d="M6000 5660 c0 -5 5 -10 10 -10 16 0 3 -135 -15 -170 -15 -29 -21 -69
-9 -57 4 3 14 -4 24 -15 17 -21 18 -21 23 -2 3 10 5 48 5 84 -1 36 2 91 6 123
7 57 7 57 -18 57 -14 0 -26 -4 -26 -10z"/>
<path d="M4831 5648 c0 -7 4 -22 9 -33 8 -18 9 -17 9 7 1 15 -3 30 -9 33 -5 3
-10 0 -9 -7z"/>
<path d="M5807 5611 c-4 -17 -3 -21 5 -13 5 5 8 16 6 23 -3 8 -7 3 -11 -10z"/>
<path d="M7680 5595 c0 -8 5 -15 10 -15 6 0 10 7 10 15 0 8 -4 15 -10 15 -5 0
-10 -7 -10 -15z"/>
<path d="M5915 5560 c-44 -29 -65 -50 -79 -82 l-20 -43 -6 45 -5 45 -8 -38
c-9 -40 3 -67 29 -67 8 0 16 -12 20 -27 12 -54 15 -62 49 -105 19 -23 35 -47
35 -53 0 -15 64 -55 88 -55 12 0 32 6 43 13 18 11 25 7 62 -36 23 -26 44 -47
47 -47 3 0 5 25 5 55 0 32 -4 54 -10 52 -5 -2 -10 -16 -10 -30 1 -15 0 -27 -1
-27 -2 0 -18 14 -36 30 -34 31 -52 37 -63 20 -8 -13 -51 -13 -74 0 -25 13
-111 153 -111 180 0 12 -5 30 -11 42 -6 11 -8 31 -5 44 6 23 53 74 69 74 4 0
25 11 45 25 60 41 12 27 -53 -15z"/>
<path d="M5160 5577 c0 -2 22 -26 49 -53 177 -177 232 -227 238 -220 4 4 -46
59 -112 122 -111 106 -175 162 -175 151z"/>
<path d="M4846 5562 c-5 -9 0 -47 22 -141 4 -19 13 -36 20 -39 16 -5 15 16 -3
68 -8 23 -15 54 -15 69 0 31 -15 58 -24 43z"/>
<path d="M7390 5550 c0 -13 5 -20 13 -17 6 2 12 10 12 17 0 7 -6 15 -12 18 -8
2 -13 -5 -13 -18z"/>
<path d="M7645 5561 c-3 -5 -21 -7 -40 -4 -23 4 -35 2 -35 -6 0 -6 5 -12 10
-12 6 -1 14 -2 19 -3 5 0 13 -4 17 -8 18 -19 74 8 74 35 0 11 -38 8 -45 -2z"/>
<path d="M7917 5533 c-4 -3 -7 -11 -7 -17 0 -6 5 -5 12 2 6 6 9 14 7 17 -3 3
-9 2 -12 -2z"/>
<path d="M7897 5483 c-4 -3 -7 -11 -7 -17 0 -6 5 -5 12 2 6 6 9 14 7 17 -3 3
-9 2 -12 -2z"/>
<path d="M3630 5460 c-7 -13 -7 -20 -1 -20 6 0 15 9 21 20 7 13 7 20 1 20 -6
0 -15 -9 -21 -20z"/>
<path d="M5720 5440 c-18 -12 -2 -12 25 0 13 6 15 9 5 9 -8 0 -22 -4 -30 -9z"/>
<path d="M5649 5417 c-39 -17 -173 -133 -189 -162 -18 -33 -35 -32 -62 5 -29
39 -118 115 -118 100 0 -7 32 -42 70 -79 66 -62 83 -92 61 -105 -5 -4 -26 -36
-46 -72 -29 -52 -38 -81 -44 -142 -7 -68 -5 -80 13 -104 11 -16 29 -28 40 -28
17 0 16 4 -13 34 l-33 34 17 78 c18 81 56 149 79 141 9 -4 11 2 9 17 -13 65
117 218 233 276 42 21 27 26 -17 7z"/>
<path d="M6140 5426 c0 -2 7 -9 15 -16 13 -11 14 -10 9 4 -5 14 -24 23 -24 12z"/>
<path d="M7862 5410 c0 -14 2 -19 5 -12 2 6 2 18 0 25 -3 6 -5 1 -5 -13z"/>
<path d="M5040 5416 c0 -2 7 -9 15 -16 13 -11 14 -10 9 4 -5 14 -24 23 -24 12z"/>
<path d="M6731 5400 c-18 -4 -43 -13 -55 -18 -11 -6 -52 -25 -89 -42 -37 -18
-66 -35 -63 -38 3 -3 33 9 66 26 33 18 82 37 108 42 87 19 92 20 92 30 0 11
-11 11 -59 0z"/>
<path d="M5970 5383 c0 -5 5 -15 10 -23 8 -12 10 -11 10 8 0 12 -4 22 -10 22
-5 0 -10 -3 -10 -7z"/>
<path d="M7495 5370 c3 -5 13 -10 21 -10 8 0 12 5 9 10 -3 6 -13 10 -21 10 -8
0 -12 -4 -9 -10z"/>
<path d="M7833 5360 c-12 -28 -6 -47 9 -32 5 5 8 20 6 33 l-5 24 -10 -25z"/>
<path d="M3772 5338 c14 -42 28 -58 28 -32 0 34 -12 64 -26 64 -10 0 -11 -7
-2 -32z"/>
<path d="M5984 5326 c-3 -8 -1 -23 5 -35 6 -11 11 -30 11 -42 0 -17 3 -20 11
-12 7 7 8 26 4 52 -7 44 -22 61 -31 37z"/>
<path d="M5212 5297 c-7 -8 -15 -32 -18 -54 l-4 -38 21 43 c22 46 22 75 1 49z"/>
<path d="M5037 5280 c-8 -16 25 -265 36 -277 17 -16 16 12 -2 118 -11 63 -22
128 -24 144 -2 21 -5 25 -10 15z"/>
<path d="M3801 5270 c-2 -24 26 -153 38 -180 10 -22 11 -18 7 25 -5 50 -43
183 -45 155z"/>
<path d="M5609 5243 c-13 -21 -27 -39 -31 -41 -4 -2 -8 -9 -8 -16 0 -7 -11
-34 -24 -62 -47 -98 -84 -233 -68 -248 3 -4 6 -17 7 -29 0 -44 20 -25 21 21 1
105 42 244 100 342 20 33 34 63 31 66 -2 3 -15 -12 -28 -33z"/>
<path d="M6384 5265 c-10 -8 -14 -15 -8 -15 6 0 17 7 24 15 16 19 9 19 -16 0z"/>
<path d="M7770 5226 c-11 -25 -20 -48 -20 -51 0 -10 -77 -188 -136 -316 -30
-64 -54 -118 -54 -122 0 -3 -17 -43 -39 -89 -21 -46 -60 -129 -86 -186 -26
-56 -45 -105 -41 -109 6 -6 96 176 96 196 0 6 5 11 10 11 6 0 10 5 10 11 0 6
14 38 30 71 17 32 30 63 30 69 0 6 23 57 50 113 28 56 50 106 50 110 0 5 32
72 70 150 66 134 83 186 60 186 -5 0 -19 -20 -30 -44z"/>
<path d="M5250 5229 c0 -5 5 -7 10 -4 6 3 10 8 10 11 0 2 -4 4 -10 4 -5 0 -10
-5 -10 -11z"/>
<path d="M7240 5220 c-21 -3 -34 -11 -32 -18 1 -7 -5 -15 -13 -18 -16 -7 -21
-34 -5 -34 5 0 14 9 21 21 7 13 17 19 29 16 23 -6 43 7 38 24 -2 10 -13 12
-38 9z"/>
<path d="M5475 5170 c-3 -5 -1 -10 4 -10 6 0 11 5 11 10 0 6 -2 10 -4 10 -3 0
-8 -4 -11 -10z"/>
<path d="M6982 5158 c-13 -13 -16 -38 -6 -38 8 0 33 32 34 43 0 11 -15 8 -28
-5z"/>
<path d="M7210 5138 c0 -6 -7 -20 -17 -30 -15 -17 -15 -18 4 -18 12 0 25 11
31 25 15 33 15 35 -3 35 -8 0 -15 -5 -15 -12z"/>
<path d="M7067 5123 c-10 -9 -9 -23 2 -23 5 0 11 7 15 15 5 15 -5 20 -17 8z"/>
<path d="M7107 5089 c-10 -18 -15 -34 -11 -38 8 -9 55 49 49 60 -10 15 -19 10
-38 -22z"/>
<path d="M6900 5100 c0 -5 5 -10 11 -10 5 0 7 5 4 10 -3 6 -8 10 -11 10 -2 0
-4 -4 -4 -10z"/>
<path d="M6943 5093 c-18 -7 -16 -23 2 -23 8 0 15 7 15 15 0 8 -1 15 -2 14 -2
0 -9 -3 -15 -6z"/>
<path d="M6135 5070 c3 -5 8 -10 11 -10 2 0 4 5 4 10 0 6 -5 10 -11 10 -5 0
-7 -4 -4 -10z"/>
<path d="M7022 5045 c-6 -14 -18 -25 -27 -25 -8 0 -15 -7 -15 -16 0 -11 -5
-14 -16 -10 -13 5 -15 2 -11 -13 5 -21 -25 -41 -31 -22 -5 14 -42 14 -42 1 0
-5 9 -10 21 -10 15 0 19 -4 15 -16 -6 -15 -4 -15 18 -1 21 14 26 14 36 2 7 -8
18 -15 24 -15 6 0 3 7 -6 14 -10 7 -18 21 -18 30 0 25 33 16 45 -12 13 -29 28
-29 20 1 -7 22 -7 22 8 2 18 -24 27 -18 30 21 2 25 -2 29 -26 32 -26 3 -26 4
-12 25 17 24 19 37 7 37 -5 0 -14 -11 -20 -25z"/>
<path d="M3843 5020 c8 -55 27 -123 33 -117 5 5 -24 149 -33 156 -3 3 -3 -14
0 -39z"/>
<path d="M6255 5040 c3 -5 11 -10 16 -10 6 0 7 5 4 10 -3 6 -11 10 -16 10 -6
0 -7 -4 -4 -10z"/>
<path d="M6820 5030 c0 -5 5 -10 10 -10 6 0 10 5 10 10 0 6 -4 10 -10 10 -5 0
-10 -4 -10 -10z"/>
<path d="M6880 5030 c0 -5 5 -10 10 -10 6 0 10 5 10 10 0 6 -4 10 -10 10 -5 0
-10 -4 -10 -10z"/>
<path d="M7140 5030 c0 -5 5 -10 10 -10 6 0 10 5 10 10 0 6 -4 10 -10 10 -5 0
-10 -4 -10 -10z"/>
<path d="M6243 4984 c26 -26 47 -50 47 -55 0 -5 5 -9 10 -9 28 0 -9 57 -60 93
-46 32 -45 17 3 -29z"/>
<path d="M5807 4993 c-4 -3 -7 -13 -7 -22 1 -13 3 -13 11 2 11 19 8 33 -4 20z"/>
<path d="M6700 4990 c0 -5 5 -10 10 -10 6 0 10 5 10 10 0 6 -4 10 -10 10 -5 0
-10 -4 -10 -10z"/>
<path d="M5446 4975 c4 -8 10 -15 15 -15 5 0 9 7 9 15 0 8 -7 15 -15 15 -9 0
-12 -6 -9 -15z"/>
<path d="M6770 4971 c0 -5 6 -12 13 -15 6 -4 -22 -4 -63 -1 -41 2 -81 0 -89
-4 -18 -12 3 -18 91 -27 79 -7 125 0 110 19 -6 7 -11 17 -11 22 -1 13 -51 19
-51 6z"/>
<path d="M6413 4963 c9 -2 23 -2 30 0 6 3 -1 5 -18 5 -16 0 -22 -2 -12 -5z"/>
<path d="M5704 4923 c-13 -34 1 -89 16 -63 4 8 5 32 1 53 l-6 39 -11 -29z"/>
<path d="M5792 4930 c0 -14 2 -19 5 -12 2 6 2 18 0 25 -3 6 -5 1 -5 -13z"/>
<path d="M5907 4887 c-10 -27 -18 -132 -9 -117 5 8 13 41 17 73 6 54 3 72 -8
44z"/>
<path d="M5773 4853 c1 -21 -1 -87 -3 -147 -3 -79 0 -111 8 -114 9 -3 12 35
12 147 0 83 -4 151 -9 151 -5 0 -9 -17 -8 -37z"/>
<path d="M6121 4863 c0 -25 1 -26 9 -8 12 27 12 35 0 35 -5 0 -10 -12 -9 -27z"/>
<path d="M6314 4867 c3 -10 6 -27 6 -38 0 -10 5 -19 10 -19 12 0 2 50 -13 65
-7 7 -8 4 -3 -8z"/>
<path d="M6046 4862 c-5 -9 -46 -234 -46 -254 0 -5 4 -8 9 -8 5 0 9 12 9 28
-1 15 9 73 22 130 20 94 22 130 6 104z"/>
<path d="M6930 4850 c0 -5 5 -10 11 -10 5 0 7 5 4 10 -3 6 -8 10 -11 10 -2 0
-4 -4 -4 -10z"/>
<path d="M3720 4831 c0 -20 36 -48 48 -37 3 3 0 6 -6 6 -6 0 -12 10 -14 22 -4
28 -28 36 -28 9z"/>
<path d="M5700 4786 c0 -58 27 -156 43 -156 5 0 6 10 3 23 -4 12 -12 59 -18
105 -13 93 -28 109 -28 28z"/>
<path d="M6380 4833 c0 -17 29 -87 30 -72 0 30 -12 79 -21 79 -5 0 -9 -3 -9
-7z"/>
<path d="M6783 4797 c-8 -13 0 -16 49 -23 39 -5 46 -4 50 12 4 17 -1 19 -45
19 -27 0 -51 -4 -54 -8z"/>
<path d="M6324 4766 c-6 -26 11 -91 30 -116 7 -8 21 -42 31 -75 20 -64 31 -83
41 -73 7 7 -53 187 -67 203 -5 5 -9 26 -9 47 0 43 -16 51 -26 14z"/>
<path d="M3731 4766 c-9 -10 -9 -16 -1 -21 17 -10 37 12 24 25 -8 8 -15 6 -23
-4z"/>
<path d="M3915 4744 c6 -51 38 -151 43 -135 3 10 -17 89 -39 151 -7 20 -8 16
-4 -16z"/>
<path d="M5880 4705 c0 -27 2 -46 5 -43 8 8 9 77 2 85 -4 3 -7 -15 -7 -42z"/>
<path d="M6421 4693 c-1 -17 -4 -38 -7 -47 -4 -11 -1 -16 10 -16 18 0 21 40 6
75 -7 17 -9 15 -9 -12z"/>
<path d="M3740 4687 c0 -6 9 -18 20 -25 12 -7 18 -18 14 -25 -5 -9 -4 -9 5 -1
15 13 7 36 -19 52 -16 10 -20 10 -20 -1z"/>
<path d="M6290 4640 c0 -5 5 -10 11 -10 5 0 7 5 4 10 -3 6 -8 10 -11 10 -2 0
-4 -4 -4 -10z"/>
<path d="M3790 4604 c0 -8 5 -12 10 -9 6 3 10 10 10 16 0 5 -4 9 -10 9 -5 0
-10 -7 -10 -16z"/>
<path d="M3745 4560 c3 -5 8 -10 11 -10 2 0 4 5 4 10 0 6 -5 10 -11 10 -5 0
-7 -4 -4 -10z"/>
<path d="M6001 4502 c-1 -58 20 -182 31 -182 5 0 7 4 4 8 -3 5 -7 37 -11 73
-3 35 -10 82 -14 104 l-9 40 -1 -43z"/>
<path d="M4021 4523 c0 -4 4 -17 9 -28 8 -19 9 -19 9 2 1 12 -3 25 -9 28 -5 3
-10 3 -9 -2z"/>
<path d="M3980 4495 c0 -8 4 -15 10 -15 5 0 7 7 4 15 -4 8 -8 15 -10 15 -2 0
-4 -7 -4 -15z"/>
<path d="M4001 4444 c0 -11 3 -14 6 -6 3 7 2 16 -1 19 -3 4 -6 -2 -5 -13z"/>
<path d="M3900 4425 c0 -8 5 -15 10 -15 6 0 10 7 10 15 0 8 -4 15 -10 15 -5 0
-10 -7 -10 -15z"/>
<path d="M6390 4433 c0 -13 29 -38 35 -31 3 3 -4 13 -15 23 -11 10 -20 13 -20
8z"/>
<path d="M7372 4318 c-14 -14 -16 -28 -3 -28 9 0 24 30 18 36 -2 2 -9 -2 -15
-8z"/>
<path d="M3795 4280 c-3 -5 -1 -10 4 -10 6 0 11 5 11 10 0 6 -2 10 -4 10 -3 0
-8 -4 -11 -10z"/>
<path d="M3936 4259 c-10 -17 -16 -33 -13 -36 8 -8 47 35 47 52 0 24 -14 17
-34 -16z"/>
<path d="M6030 4281 c0 -5 7 -24 15 -42 10 -24 14 -28 14 -14 1 30 -10 65 -20
65 -5 0 -9 -4 -9 -9z"/>
<path d="M7346 4265 c-8 -23 -8 -35 3 -35 13 0 23 32 13 42 -6 6 -12 3 -16 -7z"/>
<path d="M4565 4250 c-19 -8 -19 -9 3 -9 12 -1 22 4 22 9 0 6 -1 10 -2 9 -2 0
-12 -4 -23 -9z"/>
<path d="M3800 4201 c0 -16 7 -31 15 -35 11 -4 15 2 15 23 0 16 -7 31 -15 35
-11 4 -15 -2 -15 -23z"/>
<path d="M3856 4198 c-9 -34 -8 -38 9 -38 10 0 15 10 15 30 0 35 -15 40 -24 8z"/>
<path d="M6066 4173 c9 -38 23 -63 34 -63 15 0 12 16 -5 30 -8 7 -15 21 -15
31 0 10 -5 21 -10 24 -7 4 -8 -3 -4 -22z"/>
<path d="M4101 4138 c-1 -21 4 -38 9 -38 12 0 12 27 0 55 -7 16 -9 13 -9 -17z"/>
<path d="M3921 4146 c-20 -24 -9 -39 14 -22 15 11 17 18 9 26 -8 8 -14 7 -23
-4z"/>
<path d="M3850 4128 c0 -6 10 -32 22 -57 17 -34 23 -41 28 -27 3 10 10 18 15
18 17 0 45 18 45 28 0 14 -44 12 -58 -2 -10 -10 -15 -10 -22 2 -5 8 -10 23
-10 33 0 9 -4 17 -10 17 -5 0 -10 -5 -10 -12z"/>
<path d="M6270 4130 c-13 -8 -12 -10 3 -10 9 0 17 5 17 10 0 12 -1 12 -20 0z"/>
<path d="M6153 4123 c-22 -8 -14 -23 12 -23 14 0 25 4 25 9 0 11 -21 19 -37
14z"/>
<path d="M4160 4086 c0 -9 7 -16 16 -16 17 0 14 22 -4 28 -7 2 -12 -3 -12 -12z"/>
<path d="M4333 4035 c-31 -31 -53 -58 -49 -62 6 -6 26 14 89 85 47 52 20 37
-40 -23z"/>
<path d="M4510 4080 c-9 -6 -10 -10 -3 -10 6 0 15 5 18 10 8 12 4 12 -15 0z"/>
<path d="M4425 4030 c-51 -30 -133 -106 -124 -115 3 -3 25 13 49 35 24 22 65
54 92 71 26 17 48 33 48 35 0 9 -18 2 -65 -26z"/>
<path d="M4120 4044 c0 -13 21 -42 34 -47 11 -5 12 0 3 24 -6 16 -17 29 -24
29 -7 0 -13 -3 -13 -6z"/>
<path d="M4101 3984 c0 -11 3 -14 6 -6 3 7 2 16 -1 19 -3 4 -6 -2 -5 -13z"/>
<path d="M4243 3943 c-2 -10 -35 -49 -73 -87 -57 -59 -71 -68 -83 -57 -21 17
-31 -3 -15 -31 7 -13 18 -26 25 -30 6 -5 9 -18 6 -30 -3 -19 -1 -18 12 6 11
18 20 25 27 18 6 -6 -1 -26 -20 -58 -26 -42 -62 -139 -62 -167 0 -4 7 -2 15 7
8 8 15 17 15 19 0 3 25 57 55 122 30 64 55 120 55 124 0 5 10 20 21 35 37 47
13 39 -27 -8 -33 -39 -64 -59 -64 -41 0 11 122 155 131 155 5 0 9 9 9 20 0 25
-20 27 -27 3z"/>
<path d="M4270 3891 c-7 -15 -7 -21 0 -21 12 0 25 28 17 36 -3 3 -10 -4 -17
-15z"/>
<path d="M3938 3876 c-27 -20 -23 -39 7 -32 22 6 25 3 25 -19 0 -16 6 -25 15
-25 8 0 24 -9 34 -19 20 -20 20 -19 23 12 2 27 7 32 26 30 20 -3 23 1 20 25
-2 20 -8 27 -25 27 -11 0 -25 3 -29 8 -14 14 -24 7 -24 -18 0 -14 -5 -25 -10
-25 -6 0 -16 11 -22 25 -13 28 -16 29 -40 11z"/>
<path d="M4290 3826 c0 -7 11 -25 25 -40 14 -16 32 -38 40 -50 13 -19 95 -74
95 -63 0 2 -20 18 -45 36 -25 18 -45 37 -45 43 0 6 -16 28 -35 49 -19 22 -35
33 -35 25z"/>
<path d="M4350 3820 c0 -5 5 -10 11 -10 5 0 7 5 4 10 -3 6 -8 10 -11 10 -2 0
-4 -4 -4 -10z"/>
<path d="M4395 3790 c3 -5 8 -10 11 -10 2 0 4 5 4 10 0 6 -5 10 -11 10 -5 0
-7 -4 -4 -10z"/>
<path d="M3983 3763 c-22 -8 -14 -39 17 -72 17 -17 34 -31 39 -31 13 0 22 28
11 35 -6 4 -10 14 -10 24 0 21 -39 50 -57 44z"/>
<path d="M4903 3728 c-68 -143 -70 -148 -54 -148 10 0 52 84 77 153 18 51 2
47 -23 -5z"/>
<path d="M4525 3678 c43 -31 115 -69 115 -61 0 5 -26 22 -57 38 -71 36 -84 41
-58 23z"/>
<path d="M4076 3654 c-4 -9 -4 -19 -1 -22 2 -3 7 3 11 12 4 9 4 19 1 22 -2 3
-7 -3 -11 -12z"/>
<path d="M4170 3644 c0 -8 5 -12 10 -9 6 3 10 10 10 16 0 5 -4 9 -10 9 -5 0
-10 -7 -10 -16z"/>
<path d="M4210 3638 c0 -19 2 -20 10 -8 13 19 13 30 0 30 -5 0 -10 -10 -10
-22z"/>
<path d="M4485 3650 c9 -15 82 -60 96 -60 7 0 1 8 -12 19 -33 26 -93 55 -84
41z"/>
<path d="M4140 3584 c0 -14 -5 -34 -10 -45 -8 -15 -7 -19 4 -19 8 0 17 -6 19
-12 4 -10 6 -10 6 0 1 6 10 12 20 12 38 0 43 66 5 80 -38 15 -44 13 -44 -16z"/>
<path d="M4650 3607 c0 -6 71 -52 93 -60 28 -11 19 6 -16 29 -33 21 -77 39
-77 31z"/>
<path d="M4635 3550 c3 -5 14 -10 23 -10 15 0 15 2 2 10 -20 13 -33 13 -25 0z"/>
<path d="M4810 3552 c0 -13 23 -32 37 -32 7 0 32 -12 54 -26 22 -14 48 -24 57
-22 11 3 -3 14 -38 32 -30 16 -59 35 -63 42 -8 15 -47 20 -47 6z"/>
<path d="M4727 3503 c-9 -9 12 -33 30 -33 11 0 11 4 3 20 -11 21 -22 25 -33
13z"/>
<path d="M4805 3501 c-3 -5 -1 -12 5 -16 5 -3 10 1 10 9 0 18 -6 21 -15 7z"/>
<path d="M4987 3443 c-18 -88 -28 -131 -38 -156 -9 -21 -9 -31 -1 -39 8 -8 14
-3 22 18 12 30 40 165 40 190 0 25 -18 15 -23 -13z"/>
<path d="M4887 3418 c10 -11 27 -18 40 -16 40 5 30 23 -14 29 -41 5 -42 5 -26
-13z"/>
<path d="M4014 3360 c14 -17 39 -42 56 -57 28 -23 29 -26 14 -38 -23 -16 -1
-30 25 -15 16 8 31 3 78 -25 32 -19 52 -35 46 -35 -19 0 -15 -21 7 -50 l19
-25 7 32 c6 32 7 32 33 19 14 -8 46 -22 71 -31 l45 -17 -19 21 c-11 12 -27 21
-36 21 -9 0 -37 15 -61 33 -24 18 -52 37 -62 40 -11 4 -21 16 -24 27 -4 15
-11 19 -25 14 -15 -4 -19 -2 -17 13 4 20 -7 43 -20 43 -5 0 -11 -10 -14 -22
-6 -21 -7 -21 -25 -5 -10 9 -22 17 -25 17 -7 0 -38 24 -69 53 -29 28 -32 20
-4 -13z"/>
<path d="M4169 3184 c-11 -14 -10 -16 9 -12 13 1 23 7 23 13 1 17 -17 16 -32
-1z"/>
<path d="M4867 3183 c-4 -3 -7 -11 -7 -17 0 -6 5 -5 12 2 6 6 9 14 7 17 -3 3
-9 2 -12 -2z"/>
<path d="M4113 3155 c-10 -24 -9 -25 18 -25 32 0 35 6 15 33 -17 22 -19 22
-33 -8z"/>
<path d="M4903 3127 c-8 -16 -9 -29 -3 -32 12 -8 23 17 18 41 -2 14 -6 12 -15
-9z"/>
<path d="M4155 3100 c-3 -5 -1 -10 4 -10 6 0 11 5 11 10 0 6 -2 10 -4 10 -3 0
-8 -4 -11 -10z"/>
<path d="M4917 2648 c-15 -15 -16 -22 -6 -34 22 -26 39 -17 32 19 -3 17 -6 32
-7 33 -1 0 -9 -8 -19 -18z"/>
<path d="M1158 6683 c7 -3 16 -2 19 1 4 3 -2 6 -13 5 -11 0 -14 -3 -6 -6z"/>
<path d="M7596 5245 c-3 -8 -1 -15 4 -15 6 0 10 7 10 15 0 8 -2 15 -4 15 -2 0
-6 -7 -10 -15z"/>
<path d="M7178 4383 c7 -3 16 -2 19 1 4 3 -2 6 -13 5 -11 0 -14 -3 -6 -6z"/>
<path d="M7085 4364 l-30 -13 30 6 c32 6 41 11 34 17 -2 2 -17 -2 -34 -10z"/>
<path d="M6644 4186 c11 -9 24 -16 30 -16 12 0 7 5 -24 19 -24 11 -24 11 -6
-3z"/>
<path d="M6765 4130 c11 -5 27 -9 35 -9 13 -1 13 0 0 9 -8 5 -24 9 -35 9 l-20
0 20 -9z"/>
<path d="M6915 4100 c3 -5 8 -10 11 -10 2 0 4 5 4 10 0 6 -5 10 -11 10 -5 0
-7 -4 -4 -10z"/>
<path d="M5784 4335 c26 -20 42 -19 22 0 -8 8 -21 15 -28 15 -8 -1 -6 -6 6
-15z"/>
<path d="M5458 4258 c-3 -7 1 -26 8 -43 l13 -30 0 30 c1 36 -13 64 -21 43z"/>
<path d="M5302 4175 c2 -11 -6 -40 -19 -64 -13 -24 -23 -50 -23 -58 0 -26 21
-2 47 54 25 52 25 55 9 71 -17 16 -18 16 -14 -3z"/>
<path d="M5480 4177 c0 -14 56 -152 86 -212 36 -73 88 -144 98 -134 3 3 -12
31 -34 61 -21 31 -56 93 -76 139 -20 46 -40 88 -45 94 -5 5 -9 17 -9 26 0 10
-4 21 -10 24 -5 3 -10 4 -10 2z"/>
<path d="M5677 4140 c3 -11 7 -20 9 -20 2 0 4 9 4 20 0 11 -4 20 -9 20 -5 0
-7 -9 -4 -20z"/>
<path d="M5700 4063 c0 -12 5 -25 10 -28 13 -8 13 15 0 35 -8 12 -10 11 -10
-7z"/>
<path d="M5196 3924 c-20 -42 -34 -79 -31 -82 7 -8 9 -5 45 76 42 99 32 103
-14 6z"/>
<path d="M5411 3926 c-7 -13 -11 -32 -9 -42 2 -13 8 -6 20 24 18 45 10 58 -11
18z"/>
<path d="M5740 3907 c0 -14 5 -29 10 -32 7 -4 8 3 4 22 -9 38 -14 42 -14 10z"/>
<path d="M5342 3785 c-23 -47 -35 -63 -47 -59 -11 4 -15 0 -15 -17 0 -12 -9
-56 -21 -96 -26 -94 -22 -144 5 -58 11 33 23 64 28 70 4 5 8 20 8 33 0 13 8
36 18 50 21 31 64 133 58 139 -2 2 -17 -26 -34 -62z"/>
<path d="M5761 3820 c0 -8 4 -24 9 -35 5 -13 9 -14 9 -5 0 8 -4 24 -9 35 -5
13 -9 14 -9 5z"/>
<path d="M5775 3743 c8 -19 19 -72 29 -137 7 -44 16 -61 16 -30 0 40 -33 184
-42 184 -6 0 -7 -8 -3 -17z"/>
<path d="M5597 3568 c8 -44 13 -48 13 -10 0 17 -4 34 -10 37 -6 4 -7 -6 -3
-27z"/>
<path d="M5820 3515 c0 -14 4 -25 9 -25 4 0 6 11 3 25 -2 14 -6 25 -8 25 -2 0
-4 -11 -4 -25z"/>
<path d="M5611 3480 c-1 -54 26 -346 35 -372 3 -10 10 -18 15 -18 12 0 11 7
-2 50 -11 37 -12 43 -24 230 -8 123 -23 190 -24 110z"/>
<path d="M5407 3495 c-3 -11 -8 -63 -12 -115 -3 -52 -8 -110 -11 -127 -4 -20
-2 -33 4 -33 17 0 21 12 23 71 1 29 6 77 11 104 11 53 -2 141 -15 100z"/>
<path d="M5228 3470 c-11 -38 -10 -56 3 -43 6 6 9 23 7 39 l-3 29 -7 -25z"/>
<path d="M5843 3370 c0 -25 2 -35 4 -22 2 12 2 32 0 45 -2 12 -4 2 -4 -23z"/>
<path d="M6306 3381 c-9 -16 -16 -38 -16 -48 0 -10 9 2 20 26 23 50 19 68 -4
22z"/>
<path d="M5862 3250 c0 -19 2 -27 5 -17 2 9 2 25 0 35 -3 9 -5 1 -5 -18z"/>
<path d="M6383 3034 c-3 -8 -1 -20 6 -27 8 -8 11 -4 11 16 0 30 -7 35 -17 11z"/>
<path d="M6330 3005 c0 -14 -3 -24 -7 -24 -28 5 -33 -4 -33 -61 0 -33 4 -60
10 -60 6 0 13 0 17 0 4 0 6 18 4 39 -3 43 12 60 35 40 22 -18 26 -6 13 45 -12
50 -39 64 -39 21z"/>
<path d="M6194 3009 c-8 -14 11 -33 25 -25 6 4 11 14 11 22 0 16 -26 19 -36 3z"/>
<path d="M5883 2997 c4 -10 7 -23 7 -28 0 -5 5 -9 10 -9 16 0 12 26 -7 41 -15
12 -16 12 -10 -4z"/>
<path d="M5902 2909 c2 -7 10 -15 17 -17 8 -3 12 1 9 9 -2 7 -10 15 -17 17 -8
3 -12 -1 -9 -9z"/>
<path d="M6383 2874 c-3 -8 -1 -20 6 -27 8 -8 11 -4 11 16 0 30 -7 35 -17 11z"/>
<path d="M5740 2868 c0 -17 21 -58 30 -58 5 0 10 3 10 8 -1 9 -39 59 -40 50z"/>
<path d="M5921 2824 c0 -11 3 -14 6 -6 3 7 2 16 -1 19 -3 4 -6 -2 -5 -13z"/>
<path d="M5441 2804 c0 -11 3 -14 6 -6 3 7 2 16 -1 19 -3 4 -6 -2 -5 -13z"/>
<path d="M6340 2781 c0 -11 31 -24 39 -16 3 3 -1 10 -9 15 -19 12 -30 12 -30
1z"/>
<path d="M5465 2703 c4 -10 12 -36 18 -58 5 -22 12 -47 15 -55 3 -8 6 -20 7
-25 1 -14 42 -55 55 -55 9 0 7 23 -6 88 -2 12 -10 22 -17 22 -6 0 -22 23 -34
50 -12 28 -27 50 -33 50 -8 0 -9 -7 -5 -17z"/>
<path d="M5804 2668 c6 -32 36 -68 56 -68 14 0 13 43 -2 75 -7 17 -19 25 -36
25 -22 0 -24 -3 -18 -32z"/>
<path d="M5732 2658 c-7 -7 -12 -20 -12 -30 0 -17 1 -17 20 2 20 20 26 40 12
40 -4 0 -13 -5 -20 -12z"/>
<path d="M6314 2655 c-9 -23 10 -40 25 -22 9 11 8 17 -4 27 -12 10 -16 9 -21
-5z"/>
<path d="M3640 3600 c0 -5 5 -10 11 -10 5 0 7 5 4 10 -3 6 -8 10 -11 10 -2 0
-4 -4 -4 -10z"/>
<path d="M3707 3494 c-15 -15 -7 -45 11 -42 9 2 17 12 17 22 0 20 -16 31 -28
20z"/>
<path d="M3307 3435 c6 -17 25 -15 31 3 2 7 -5 12 -17 12 -14 0 -19 -5 -14
-15z"/>
<path d="M3360 3419 c0 -11 5 -17 10 -14 6 3 10 13 10 21 0 8 -4 14 -10 14 -5
0 -10 -9 -10 -21z"/>
<path d="M3717 3434 c-8 -8 1 -24 14 -24 5 0 9 7 9 15 0 15 -12 20 -23 9z"/>
<path d="M3106 3422 c-3 -6 -1 -14 5 -17 15 -10 25 3 12 16 -7 7 -13 7 -17 1z"/>
<path d="M3263 3389 c5 -53 29 -71 38 -28 9 42 0 69 -23 69 -16 0 -18 -6 -15
-41z"/>
<path d="M3170 3395 c0 -14 -5 -34 -12 -45 -14 -22 -3 -39 14 -22 18 18 30 14
23 -8 -4 -14 -2 -20 9 -20 24 0 26 14 9 68 -18 54 -43 70 -43 27z"/>
<path d="M3600 3404 c0 -9 5 -14 12 -12 18 6 21 28 4 28 -9 0 -16 -7 -16 -16z"/>
<path d="M2975 3359 c5 -24 4 -30 -6 -27 -8 2 -18 14 -24 26 -15 34 -35 27
-35 -12 0 -36 39 -98 40 -63 0 9 3 16 8 16 26 -4 32 4 32 46 0 26 -5 45 -11
45 -7 0 -8 -11 -4 -31z"/>
<path d="M3036 3363 c-10 -25 10 -39 23 -15 10 19 6 32 -10 32 -4 0 -10 -8
-13 -17z"/>
<path d="M3714 3366 c-6 -17 2 -36 17 -36 12 0 12 37 -1 45 -6 3 -13 -1 -16
-9z"/>
<path d="M3671 3324 c0 -11 3 -14 6 -6 3 7 2 16 -1 19 -3 4 -6 -2 -5 -13z"/>
<path d="M3150 3294 c0 -8 5 -12 10 -9 6 4 8 11 5 16 -9 14 -15 11 -15 -7z"/>
<path d="M3286 3301 c-4 -7 -5 -15 -2 -18 9 -9 19 4 14 18 -4 11 -6 11 -12 0z"/>
<path d="M3737 3286 c-4 -10 -1 -13 9 -9 15 6 19 23 5 23 -5 0 -11 -7 -14 -14z"/>
<path d="M3786 3282 c-2 -4 -1 -14 4 -21 10 -17 31 -5 23 14 -6 16 -19 20 -27
7z"/>
<path d="M3506 3248 c-11 -6 -29 -12 -40 -13 -12 -1 -26 -3 -33 -4 -6 0 -9 -9
-6 -20 2 -10 -3 -25 -11 -34 -15 -15 -22 -37 -11 -37 2 0 20 9 40 20 37 21 75
26 75 11 0 -5 7 -11 15 -15 10 -4 15 1 15 14 0 15 -7 20 -25 20 -29 0 -31 7
-9 31 21 24 15 41 -10 27z"/>
<path d="M3350 3226 c0 -8 4 -18 10 -21 6 -4 4 -15 -6 -30 -24 -36 1 -39 31
-3 l27 32 -24 18 c-28 21 -38 23 -38 4z"/>
<path d="M3713 3233 c-7 -3 -13 -16 -13 -29 0 -14 4 -23 9 -19 6 3 14 -2 19
-11 11 -19 32 -11 32 12 0 20 -32 52 -47 47z"/>
<path d="M3557 3213 c-3 -5 3 -15 14 -22 18 -11 20 -10 17 5 -3 19 -23 30 -31
17z"/>
<path d="M3810 3210 c0 -5 5 -10 10 -10 6 0 10 5 10 10 0 6 -4 10 -10 10 -5 0
-10 -4 -10 -10z"/>
<path d="M3280 3200 c0 -5 5 -10 10 -10 6 0 10 5 10 10 0 6 -4 10 -10 10 -5 0
-10 -4 -10 -10z"/>
<path d="M3800 3160 c13 -24 35 -27 26 -4 -3 9 -6 18 -6 20 0 2 -7 4 -15 4
-13 0 -14 -4 -5 -20z"/>
<path d="M3620 3151 c0 -5 6 -14 14 -20 12 -10 13 -8 9 8 -5 21 -23 30 -23 12z"/>
<path d="M3380 3120 c0 -5 5 -10 11 -10 5 0 7 5 4 10 -3 6 -8 10 -11 10 -2 0
-4 -4 -4 -10z"/>
<path d="M3425 3110 c-4 -6 -3 -16 3 -22 6 -6 12 -6 17 2 4 6 3 16 -3 22 -6 6
-12 6 -17 -2z"/>
<path d="M3470 3098 c0 -19 2 -20 10 -8 13 19 13 30 0 30 -5 0 -10 -10 -10
-22z"/>
<path d="M3165 3010 c-3 -5 1 -10 9 -10 8 0 18 5 21 10 3 6 -1 10 -9 10 -8 0
-18 -4 -21 -10z"/>
<path d="M4050 2760 c0 -5 7 -10 16 -10 8 0 12 5 9 10 -3 6 -10 10 -16 10 -5
0 -9 -4 -9 -10z"/>
</g>
</svg>
